<svg width="31" height="26" viewBox="0 0 31 26" fill="none" xmlns="http://www.w3.org/2000/svg">
<path d="M15.089 6.80514L5.16708 15.4556V24.7919C5.16708 25.0337 5.25779 25.2655 5.41927 25.4365C5.58075 25.6074 5.79976 25.7034 6.02812 25.7034L12.0587 25.6869C12.2863 25.6857 12.5042 25.5891 12.6647 25.4183C12.8253 25.2475 12.9154 25.0164 12.9154 24.7754V19.3231C12.9154 19.0814 13.0061 18.8495 13.1676 18.6786C13.3291 18.5077 13.5481 18.4116 13.7764 18.4116H17.2206C17.449 18.4116 17.668 18.5077 17.8295 18.6786C17.991 18.8495 18.0817 19.0814 18.0817 19.3231V24.7714C18.0813 24.8914 18.1033 25.0102 18.1464 25.1211C18.1896 25.232 18.2529 25.3328 18.3329 25.4178C18.4129 25.5027 18.5079 25.5701 18.6126 25.6161C18.7172 25.6621 18.8294 25.6858 18.9427 25.6858L24.9711 25.7034C25.1995 25.7034 25.4185 25.6074 25.58 25.4365C25.7414 25.2655 25.8321 25.0337 25.8321 24.7919V15.4493L15.9124 6.80514C15.7958 6.70564 15.6505 6.65137 15.5007 6.65137C15.3509 6.65137 15.2056 6.70564 15.089 6.80514ZM30.7616 12.6847L26.2627 8.75912V0.868603C26.2627 0.687299 26.1946 0.513422 26.0735 0.385221C25.9524 0.25702 25.7882 0.184998 25.6169 0.184998H22.6032C22.432 0.184998 22.2677 0.25702 22.1466 0.385221C22.0255 0.513422 21.9574 0.687299 21.9574 0.868603V5.00498L17.1394 0.808787C16.677 0.406018 16.0968 0.185803 15.498 0.185803C14.8992 0.185803 14.319 0.406018 13.8566 0.808787L0.234365 12.6847C0.168973 12.7419 0.114871 12.8122 0.0751508 12.8916C0.0354308 12.9709 0.0108711 13.0578 0.0028749 13.1472C-0.00512131 13.2366 0.00360275 13.3268 0.0285486 13.4126C0.0534944 13.4985 0.0941732 13.5783 0.14826 13.6475L1.52055 15.4134C1.57449 15.4829 1.64084 15.5404 1.71579 15.5826C1.79075 15.6249 1.87284 15.6511 1.95736 15.6597C2.04189 15.6683 2.1272 15.6592 2.2084 15.6329C2.28959 15.6066 2.36509 15.5635 2.43057 15.5063L15.089 4.46949C15.2056 4.36999 15.3509 4.31572 15.5007 4.31572C15.6505 4.31572 15.7958 4.36999 15.9124 4.46949L28.5714 15.5063C28.6367 15.5636 28.7121 15.6066 28.7932 15.633C28.8743 15.6594 28.9595 15.6687 29.0439 15.6602C29.1284 15.6517 29.2104 15.6257 29.2854 15.5837C29.3604 15.5416 29.4268 15.4844 29.4808 15.4152L30.8531 13.6492C30.9071 13.5796 30.9477 13.4994 30.9723 13.4132C30.997 13.327 31.0053 13.2364 30.9968 13.1468C30.9883 13.0572 30.9631 12.9702 30.9228 12.8909C30.8824 12.8116 30.8277 12.7415 30.7616 12.6847Z" fill="white"/>
</svg>
