<svg width="29" height="32" viewBox="0 0 29 32" fill="none" xmlns="http://www.w3.org/2000/svg">
<path d="M1.0535 1.8058L6.944 0.333611C7.58403 0.174124 8.24105 0.536036 8.50159 1.18625L11.2203 8.05645C11.4582 8.65759 11.2996 9.36301 10.8295 9.774L7.39712 12.8165C9.43614 17.5214 12.9988 21.4349 17.4336 23.6861L20.2429 19.9689C20.6281 19.4597 21.2738 19.288 21.8289 19.5456L28.1725 22.49C28.7785 22.7783 29.1127 23.4899 28.9654 24.183L27.6061 30.5625C27.4645 31.225 26.9207 31.7034 26.2807 31.7034C11.7753 31.7034 0 18.9752 0 3.24118C0 2.55416 0.436125 1.95915 1.0535 1.8058Z" fill="white"/>
</svg>
