<svg height="401pt" viewBox="0 -1 401.5229 401" width="401pt" xmlns="http://www.w3.org/2000/svg"><path fill="currentColor" d="M370.5898 250.9727c-5.5234 0-10 4.4765-10 10v88.789c-.0195 16.5625-13.4375 29.9844-30 30H50c-16.5625-.0156-29.9805-13.4375-30-30V89.172c.0195-16.5586 13.4375-29.9805 30-30h88.789c5.5235 0 10-4.4766 10-10 0-5.5196-4.4765-10-10-10H50c-27.6016.0312-49.9688 22.3984-50 50v260.5937c.0313 27.6016 22.3984 49.9688 50 50h280.5898c27.6016-.0312 49.9688-22.3984 50-50v-88.793c0-5.5234-4.4765-10-10-10zm0 0"/><path fill="currentColor" d="M376.629 13.4414c-17.5743-17.5742-46.0665-17.5742-63.6407 0L134.582 191.8477a9.997 9.997 0 00-2.5664 4.4023l-23.461 84.6992c-.9648 3.4727.0157 7.1914 2.5626 9.7422 2.5508 2.5469 6.2695 3.5273 9.7422 2.5664l84.6992-23.4648a9.997 9.997 0 004.4023-2.5664L388.3633 88.8164c17.5469-17.586 17.5469-46.0547 0-63.6406zM156.371 198.3477L302.3829 52.332l47.0899 47.0899L203.457 245.4375zm-9.4062 18.875l37.6211 37.625-52.039 14.418zm227.2579-142.547l-10.6055 10.6055-47.0938-47.0937 10.6094-10.6055c9.7617-9.7617 25.5899-9.7617 35.3516 0l11.7383 11.7344c9.746 9.7734 9.746 25.5898 0 35.3594zm0 0"/></svg>