<?xml version="1.0" encoding="utf-8"?>
<!-- Generator: Adobe Illustrator 23.0.3, SVG Export Plug-In . SVG Version: 6.00 Build 0)  -->
<svg version="1.1" baseProfile="tiny" id="Calque_1" xmlns:svgjs="http://svgjs.com/svgjs"
	 xmlns="http://www.w3.org/2000/svg" xmlns:xlink="http://www.w3.org/1999/xlink" x="0px" y="0px" viewBox="0 0 353.53 512"
	 xml:space="preserve">
<g transform="matrix(1,0,0,1,0,0)">
	<g>
		<circle fill="#E7F8FF" cx="168.7" cy="82.94" r="46.5"/>
		<path fill="#E7F8FF" d="M347.65,372.77c-69.02-86.45-64.01-80.57-67.17-83.15l-31.88-129.65l91.5-124.22
			c7.35-9.98,5.22-24.02-4.76-31.37c-9.98-7.35-24.02-5.22-31.37,4.76l-92.49,125.56c-1.31,0.26-56.42,13.66-59.65,14.91
			L38.44,34.19c-8.68-8.84-22.89-8.97-31.73-0.28S-2.25,56.8,6.43,65.64l128.82,131.14l16.9,68.73l0,0l18.73,76.15l-10.39,36.77
			l-90.65-16.05c-14.63-2.59-28.62,7.18-31.21,21.82c-2.59,14.64,7.18,28.61,21.82,31.21c123.68,21.89,115.96,20.71,119.35,20.71
			c11.85,0,22.57-7.85,25.89-19.61c25.7-90.99,24.1-84.69,24.48-88.12l11.09-2.73c1.12,1.64-3.49-4.21,50.38,63.26l-67.66,78.59
			c-9.7,11.27-8.43,28.27,2.84,37.97c11.26,9.7,28.27,8.44,37.97-2.84l82.23-95.51C355.46,397.32,355.73,382.89,347.65,372.77z"/>
	</g>
</g>
</svg>
