<?xml version="1.0" encoding="utf-8"?>
<!-- Generator: Adobe Illustrator 22.0.0, SVG Export Plug-In . SVG Version: 6.00 Build 0)  -->
<svg version="1.1" id="Calque_1" xmlns="http://www.w3.org/2000/svg" xmlns:xlink="http://www.w3.org/1999/xlink" x="0px" y="0px"
	 viewBox="0 0 382.8 382.5" style="enable-background:new 0 0 382.8 382.5;" xml:space="preserve">
<style type="text/css">
	.st0{fill:#FF9800;}
	.st1{fill:#F44336;}
	.st2{fill:#4CAF50;}
	.st3{fill:#1565C0;}
</style>
<g>
	<path class="st0" d="M133.4,165.6l-18.5-18.5l42-42.1c23.1-23.1,44.9-44.3,48.5-47c8.8-6.7,20.6-12.4,31.5-15
		c13.1-3.2,30.6-3,42.5,0.6c1.1,0.4,1.8-0.9,2.8-4.8c4.1-17.4,18.2-32.2,35.5-37.2c3.4-1,9.2-1.7,14-1.6
		c23.5,0.1,43.2,15.5,49.2,38.6c6.6,25.8-9.3,53.1-35.3,60.8c-7.3,2.1-7.4,2.2-6.8,5.2c3.1,17.7,3.1,27.4-0.1,40.5
		c-2.9,11.9-12.7,30.5-19.5,36.7l-2.4,2.2l-18.3-18.3l-18.3-18.3l2.6-3.9c10.9-16.6,5.2-38.6-12.2-47.1c-4.8-2.3-7-2.8-13.7-2.8
		c-14.2,0-13.4-0.6-61.7,47.9c-23.3,23.4-42.6,42.6-42.8,42.6C152.1,184.1,143.6,175.8,133.4,165.6L133.4,165.6z"/>
</g>
<g>
	<path class="st1" d="M328.9,382.4c-17.2-1.5-31.9-10.6-40.9-25.6c-1.9-3.2-4-8-4.7-10.6l-1.2-4.8l-5.1,1.4
		c-7.7,2.1-24.3,2.8-33.3,1.3c-15-2.4-31.7-10.1-41.7-19.2l-4.7-4.3l18.4-18.3L234,284l5.8,3.5c16.3,9.8,37.4,3.7,45.7-13.2
		c1.9-3.9,2.4-6.3,2.4-13.7c0-14.5,1.2-13-47.7-62l-42.8-43l18.5-18.5l18.5-18.5l41.1,41c22.6,22.6,43.8,44.3,47,48.3
		c14.5,18,21.5,44,17.7,65.3l-1.4,7.7l6,1.7c9.3,2.5,16.9,7.1,23.6,14c25.5,26.6,15.7,69.3-19,82.9
		C344.8,381.3,334.2,382.8,328.9,382.4L328.9,382.4z"/>
</g>
<g>
	<path class="st2" d="M99.3,222.4c-24.6-24.7-46.1-46.9-47.8-49.6c-4.9-7.2-9.8-18.3-12.2-27.2c-3.2-12.2-2.9-31.7,0.6-43.6
		c0.4-1.1-0.9-2-4.9-3.2c-7-2.2-16.4-8.5-21.7-14.5C-15.5,51.6,7.5,0.1,51.1,0c22.6-0.1,41.5,13.7,48.5,35.2l2.2,7l6.6-0.8
		c22.9-2.8,44.7,2.5,62.4,15.1c11.3,8.1,12.1,5.6-8.9,26.6l-18.4,18.4l-3.8-2.5c-6.6-4.3-10.4-5.4-18.8-5.3c-9.5,0-15.7,2.5-22,8.9
		c-6.3,6.3-8.8,12.5-8.9,22c-0.2,14.7-1.9,12.5,47.3,61.8l43.6,43.7l-18.5,18.5l-18.5,18.5L99.3,222.4L99.3,222.4z"/>
</g>
<g>
	<path class="st3" d="M38,381c-6-1.4-16.9-7.6-22-12.5c-16.5-15.7-20.6-38.7-10.7-58.9c6.1-12.4,15.6-21,28.4-25.7
		c5.1-1.9,5.8-2.4,5.3-4.3c-6.3-25.2,0.3-52.1,18.3-74.3l3.4-4.3l18.8,18.7c18.8,18.8,18.8,18.8,16.9,20.9c-6.7,7.1-8.7,23-4.1,33.3
		c3,6.6,11.3,14.4,17.7,16.6c6.1,2.1,16.7,2,23,0c4.4-1.5,9.4-6.2,48.9-45.5l44-43.9l18.4,18.4l18.4,18.4l-40.2,40.9
		c-22.1,22.4-42.8,43-46,45.7c-10.7,9.1-21.2,14.5-35.6,18.4c-6.6,1.8-26.5,2.3-35.1,0.9l-5.2-0.9l-1.7,5.1
		c-4.8,14.5-18.3,27.5-33.4,32.1C58.7,382.3,45.2,382.7,38,381L38,381z"/>
</g>
</svg>
