<?xml version="1.0" encoding="utf-8"?>
<!DOCTYPE svg PUBLIC "-//W3C//DTD SVG 20010904//EN" "http://www.w3.org/TR/2001/REC-SVG-20010904/DTD/svg10.dtd">
<svg version="1.0" xmlns="http://www.w3.org/2000/svg" width="512px" height="512px" viewBox="0 0 512 512" preserveAspectRatio="xMidYMid meet">
 <g fill="#ff9800">
  <path d="M204 230.5 l-18.5 -18.5 42 -42.1 c23.1 -23.1 44.9 -44.3 48.5 -47 8.8 -6.7 20.6 -12.4 31.5 -15 13.1 -3.2 30.6 -3 42.5 0.6 1.1 0.4 1.8 -0.9 2.8 -4.8 4.1 -17.4 18.2 -32.2 35.5 -37.2 3.4 -1 9.2 -1.7 14 -1.6 23.5 0.1 43.2 15.5 49.2 38.6 6.6 25.8 -9.3 53.1 -35.3 60.8 -7.3 2.1 -7.4 2.2 -6.8 5.2 3.1 17.7 3.1 27.4 -0.1 40.5 -2.9 11.9 -12.7 30.5 -19.5 36.7 l-2.4 2.2 -18.3 -18.3 -18.3 -18.3 2.6 -3.9 c10.9 -16.6 5.2 -38.6 -12.2 -47.1 -4.8 -2.3 -7 -2.8 -13.7 -2.8 -14.2 0 -13.4 -0.6 -61.7 47.9 -23.3 23.4 -42.6 42.6 -42.8 42.6 -0.3 0 -8.8 -8.3 -19 -18.5z"/>
 </g>
 <g fill="#f44336">
  <path d="M399.5 447.3 c-17.2 -1.5 -31.9 -10.6 -40.9 -25.6 -1.9 -3.2 -4 -8 -4.7 -10.6 l-1.2 -4.8 -5.1 1.4 c-7.7 2.1 -24.3 2.8 -33.3 1.3 -15 -2.4 -31.7 -10.1 -41.7 -19.2 l-4.7 -4.3 18.4 -18.3 18.3 -18.3 5.8 3.5 c16.3 9.8 37.4 3.7 45.7 -13.2 1.9 -3.9 2.4 -6.3 2.4 -13.7 0 -14.5 1.2 -13 -47.7 -62 l-42.8 -43 18.5 -18.5 18.5 -18.5 41.1 41 c22.6 22.6 43.8 44.3 47 48.3 14.5 18 21.5 44 17.7 65.3 l-1.4 7.7 6 1.7 c9.3 2.5 16.9 7.1 23.6 14 25.5 26.6 15.7 69.3 -19 82.9 -4.6 1.8 -15.2 3.3 -20.5 2.9z"/>
 </g>
 <g fill="#4caf50">
  <path d="M169.9 287.3 c-24.6 -24.7 -46.1 -46.9 -47.8 -49.6 -4.9 -7.2 -9.8 -18.3 -12.2 -27.2 -3.2 -12.2 -2.9 -31.7 0.6 -43.6 0.4 -1.1 -0.9 -2 -4.9 -3.2 -7 -2.2 -16.4 -8.5 -21.7 -14.5 -28.8 -32.7 -5.8 -84.2 37.8 -84.3 22.6 -0.1 41.5 13.7 48.5 35.2 l2.2 7 6.6 -0.8 c22.9 -2.8 44.7 2.5 62.4 15.1 11.3 8.1 12.1 5.6 -8.9 26.6 l-18.4 18.4 -3.8 -2.5 c-6.6 -4.3 -10.4 -5.4 -18.8 -5.3 -9.5 0 -15.7 2.5 -22 8.9 -6.3 6.3 -8.8 12.5 -8.9 22 -0.2 14.7 -1.9 12.5 47.3 61.8 l43.6 43.7 -18.5 18.5 -18.5 18.5 -44.6 -44.7z"/>
 </g>
 <g fill="#1565c0">
  <path d="M108.6 445.9 c-6 -1.4 -16.9 -7.6 -22 -12.5 -16.5 -15.7 -20.6 -38.7 -10.7 -58.9 6.1 -12.4 15.6 -21 28.4 -25.7 5.1 -1.9 5.8 -2.4 5.3 -4.3 -6.3 -25.2 0.3 -52.1 18.3 -74.3 l3.4 -4.3 18.8 18.7 c18.8 18.8 18.8 18.8 16.9 20.9 -6.7 7.1 -8.7 23 -4.1 33.3 3 6.6 11.3 14.4 17.7 16.6 6.1 2.1 16.7 2 23 0 4.4 -1.5 9.4 -6.2 48.9 -45.5 l44 -43.9 18.4 18.4 18.4 18.4 -40.2 40.9 c-22.1 22.4 -42.8 43 -46 45.7 -10.7 9.1 -21.2 14.5 -35.6 18.4 -6.6 1.8 -26.5 2.3 -35.1 0.9 l-5.2 -0.9 -1.7 5.1 c-4.8 14.5 -18.3 27.5 -33.4 32.1 -6.8 2.2 -20.3 2.6 -27.5 0.9z"/>
 </g>
</svg>