<svg baseProfile="tiny" xmlns="http://www.w3.org/2000/svg" viewBox="0 0 31 25.52"><path fill="currentColor" d="M15.09 6.62l-9.92 8.65v9.34c0 .24.09.47.25.64.16.17.38.27.61.27l6.03-.02c.23 0 .45-.1.61-.27.16-.17.25-.4.25-.64v-5.45c0-.24.09-.47.25-.64s.38-.27.61-.27h3.44c.23 0 .45.1.61.27.16.17.25.4.25.64v5.45c0 .12.02.24.06.35.04.11.11.21.19.3.08.08.18.15.28.2.1.05.22.07.33.07l6.03.02c.23 0 .45-.1.61-.27.16-.17.25-.4.25-.64v-9.34l-9.92-8.64c-.12-.1-.26-.15-.41-.15s-.29.03-.41.13zm15.67 5.88l-4.5-3.93V.68c0-.18-.07-.36-.19-.48s-.28-.2-.45-.2H22.6c-.17 0-.34.07-.46.2s-.19.3-.19.48v4.14L17.13.62C16.68.22 16.1 0 15.5 0s-1.18.22-1.64.62L.23 12.5c-.07.06-.12.13-.16.21-.03.08-.06.16-.07.25-.01.09 0 .18.03.27.02.09.07.17.12.23l1.37 1.77c.05.07.12.13.2.17.07.04.16.07.24.08.08.01.17 0 .25-.03.08-.03.16-.07.22-.13L15.09 4.28c.12-.1.26-.15.41-.15s.3.05.41.15l12.66 11.04c.07.06.14.1.22.13.08.03.17.04.25.03.08-.01.17-.03.24-.08.07-.04.14-.1.2-.17l1.37-1.77c.05-.07.09-.15.12-.24.02-.09.03-.18.02-.27-.01-.09-.03-.18-.07-.26-.04-.06-.09-.13-.16-.19z"/></svg>