<?xml version="1.0" encoding="utf-8"?>


<svg  version="1.1" baseProfile="tiny" id="Calque_1"
	 xmlns="http://www.w3.org/2000/svg" xmlns:xlink="http://www.w3.org/1999/xlink" x="0px" y="0px" viewBox="0 0 31 25.52"
	 xml:space="preserve">
<path fill="#FFF" d="M15.09,6.62l-9.92,8.65v9.34c0,0.24,0.09,0.47,0.25,0.64c0.16,0.17,0.38,0.27,0.61,0.27l6.03-0.02
	c0.23,0,0.45-0.1,0.61-0.27c0.16-0.17,0.25-0.4,0.25-0.64v-5.45c0-0.24,0.09-0.47,0.25-0.64s0.38-0.27,0.61-0.27h3.44
	c0.23,0,0.45,0.1,0.61,0.27c0.16,0.17,0.25,0.4,0.25,0.64v5.45c0,0.12,0.02,0.24,0.06,0.35c0.04,0.11,0.11,0.21,0.19,0.3
	c0.08,0.08,0.18,0.15,0.28,0.2c0.1,0.05,0.22,0.07,0.33,0.07l6.03,0.02c0.23,0,0.45-0.1,0.61-0.27c0.16-0.17,0.25-0.4,0.25-0.64
	v-9.34l-9.92-8.64c-0.12-0.1-0.26-0.15-0.41-0.15S15.21,6.52,15.09,6.62z M30.76,12.5l-4.5-3.93V0.68c0-0.18-0.07-0.36-0.19-0.48
	S25.79,0,25.62,0H22.6c-0.17,0-0.34,0.07-0.46,0.2c-0.12,0.13-0.19,0.3-0.19,0.48v4.14l-4.82-4.2C16.68,0.22,16.1,0,15.5,0
	s-1.18,0.22-1.64,0.62L0.23,12.5c-0.07,0.06-0.12,0.13-0.16,0.21C0.04,12.79,0.01,12.87,0,12.96c-0.01,0.09,0,0.18,0.03,0.27
	c0.02,0.09,0.07,0.17,0.12,0.23l1.37,1.77c0.05,0.07,0.12,0.13,0.2,0.17c0.07,0.04,0.16,0.07,0.24,0.08c0.08,0.01,0.17,0,0.25-0.03
	c0.08-0.03,0.16-0.07,0.22-0.13L15.09,4.28c0.12-0.1,0.26-0.15,0.41-0.15s0.3,0.05,0.41,0.15l12.66,11.04
	c0.07,0.06,0.14,0.1,0.22,0.13c0.08,0.03,0.17,0.04,0.25,0.03c0.08-0.01,0.17-0.03,0.24-0.08c0.07-0.04,0.14-0.1,0.2-0.17l1.37-1.77
	c0.05-0.07,0.09-0.15,0.12-0.24c0.02-0.09,0.03-0.18,0.02-0.27c-0.01-0.09-0.03-0.18-0.07-0.26C30.88,12.63,30.83,12.56,30.76,12.5z
	"/>
</svg>