<?xml version="1.0" encoding="utf-8"?>
<!-- Generator: Adobe Illustrator 23.0.3, SVG Export Plug-In . SVG Version: 6.00 Build 0)  -->
<svg version="1.1" baseProfile="tiny" id="Calque_1"
	 xmlns="http://www.w3.org/2000/svg" xmlns:xlink="http://www.w3.org/1999/xlink" x="0px" y="0px" viewBox="0 0 595.28 453.55"
	 xml:space="preserve">
<g>
	<polygon fill="none" points="161.8,339.54 157.8,349.92 165.83,349.92 	"/>
	<polygon fill="none" points="270.92,199.12 289.93,199.12 280.38,174.58 	"/>
	<path fill="none" d="M330.03,171.05h-13.15v20.69h13.39c5.61,0,9.62-4.57,9.62-10.35C339.89,175.46,335.8,171.05,330.03,171.05z"/>
	<path fill="none" d="M325.29,351.48h-4.78c-2.2,0-3.73,0.92-3.73,2.88c0,1.76,1.22,2.88,3.86,2.88c2.37,0,4.65-1.46,4.65-4.34
		V351.48z"/>
	<path fill="none" d="M253.02,344.87c-2.95,0-4.58,1.9-4.78,4.92h9.12C257.36,347.34,256.51,344.87,253.02,344.87z"/>
	<path fill="none" d="M237.56,344.87c-2.95,0-4.58,1.9-4.78,4.92h9.12C241.9,347.34,241.05,344.87,237.56,344.87z"/>
	<path fill="none" d="M275.56,338.05H270v8.75h5.66c2.37,0,4.07-1.93,4.07-4.37C279.73,339.92,278,338.05,275.56,338.05z"/>
	<path fill="none" d="M286.54,351.04c0,4.34,1.8,6.21,4.92,6.21c3.12,0,4.92-1.86,4.92-6.21c0-4.27-1.8-6.17-4.92-6.17
		C288.34,344.87,286.54,346.77,286.54,351.04z"/>
	<path fill="none" d="M205.46,344.87c-2.95,0-4.58,1.9-4.78,4.92h9.12C209.8,347.34,208.95,344.87,205.46,344.87z"/>
	<path fill="none" d="M405.63,344.87c-2.95,0-4.58,1.9-4.78,4.92h9.12C409.97,347.34,409.12,344.87,405.63,344.87z"/>
	<path fill="#E0007A" d="M413.66,237.05c-18.84,17.77-41.84,25.44-67.12,26.71c-31.5,1.59-60.47-6.9-87.19-23.5
		c-1.34-0.83-5.5-3.19-6.28-3.26c0.7,1.7,1.23,3.01,1.77,4.32c14.77,35.77,48.44,56.91,88.64,55.64
		c40.71-1.29,69.33-34.67,79.83-61.37c1.79-4.56,3.28-12.11,3.25-12.74c-0.18,0.16-6.84,7.68-7.23,8.15
		C417.59,233.09,415.65,235.17,413.66,237.05z"/>
	<path fill="#85177E" d="M277.98,292.49c-32.77-18.28-51.7-46.91-61.15-82.55c-0.22-0.84-1.87-6.74-2.12-7.06
		c-14.8,28.45-9.58,71.33,22.78,96.66c31.09,24.34,72.96,19.89,94.87,1.73C308.34,303.89,294.84,301.9,277.98,292.49z"/>
	<path fill="#00408F" d="M191.2,223.8c0.18-25.25,8.83-47.92,23.9-68.65c-23.57,5.66-52.82,32.1-49.16,73.1
		c3.07,34.3,30.64,57.05,54.83,60.77C198.72,271.89,191.02,249.38,191.2,223.8z"/>
	<path fill="#008CCF" d="M170.75,136.03c-21.04,22.3-18.56,54.89-9.14,67.4c-1.62-37.37,35.73-72.76,84.33-76.29
		C224.15,111.31,189.92,115.7,170.75,136.03z"/>
	<path fill="#00958B" d="M231.84,85.94c-19.32,1.91-39.83,17.35-40.98,30.15c34.31-23.77,64.6-12.27,93.5,11.26
		c-3.44-22.51-20.93-38.85-44.42-41.4H231.84z"/>
	<path fill="#4EA729" d="M268.19,88.52c27.09,6.64,41.39,31.2,38.13,64.81c11.56-8.37,15.16-29.36,7.66-44.61
		C305.73,91.93,286.53,83.27,268.19,88.52z"/>
	<path fill="#0D3082" d="M280.38,165.43c-1.44,0-2.16,0.88-2.57,1.85l-19.57,49.48c-0.16,0.32-0.24,0.88-0.24,1.2
		c0,1.44,1.2,2.73,2.73,2.73c1.36,0,2.25-0.88,2.65-1.92l5.86-14.68h22.38l5.77,14.76c0.4,1.04,1.28,1.84,2.65,1.84
		c1.68,0,2.81-1.28,2.81-2.73c0-0.24-0.08-0.8-0.24-1.2l-19.57-49.48C282.63,166.32,281.75,165.43,280.38,165.43z M270.92,199.12
		l9.46-24.54l9.54,24.54H270.92z"/>
	<path fill="#0D3082" d="M345.43,181.39c0-8.58-6.42-15.32-15.32-15.32h-15.96c-1.52,0-2.73,1.2-2.73,2.73v49.16
		c0,1.52,1.2,2.73,2.73,2.73c1.53,0,2.73-1.2,2.73-2.73v-21.25h8.1l16.28,22.7c0.64,0.96,1.52,1.28,2.33,1.28
		c1.52,0,2.73-1.2,2.73-2.73c0-0.56-0.16-1.2-0.56-1.68l-14.68-19.57C339.73,196.31,345.43,189.65,345.43,181.39z M330.27,191.74
		h-13.39v-20.69h13.15c5.77,0,9.86,4.41,9.86,10.35C339.89,187.17,335.88,191.74,330.27,191.74z"/>
	<path fill="#37A8DB" d="M358.26,165.43c-2.57,0-4.65,2.08-4.65,4.65v32.32c0,9.14,4.01,18.77,20.21,18.77s20.21-9.62,20.21-18.77
		v-32.32c0-2.57-2.09-4.65-4.65-4.65c-2.57,0-4.65,2.08-4.65,4.65v32.32c0,4.89-1.84,10.59-10.91,10.59
		c-9.06,0-10.91-5.69-10.91-10.59v-32.32C362.91,167.52,360.83,165.43,358.26,165.43z"/>
	<path fill="#37A8DB" d="M416.65,220.69c2.49,0,4.57-2.09,4.57-4.57v-46.11c0-2.49-2.09-4.57-4.57-4.57c-1.2,0-1.93,0.4-2.81,0.96
		l-11.55,7.46c-1.12,0.72-1.92,2.09-1.92,3.69c0,2.41,2.01,4.41,4.41,4.41c1.04,0,1.92-0.32,2.65-0.88l4.65-3.13v38.17
		C412.08,218.61,414.16,220.69,416.65,220.69z"/>
	<path fill="#0D3082" d="M152.34,357.89c0,0.61,0.51,1.15,1.15,1.15c0.58,0,0.95-0.37,1.12-0.81l2.48-6.21h9.46l2.44,6.24
		c0.17,0.44,0.54,0.78,1.12,0.78c0.71,0,1.19-0.54,1.19-1.15c0-0.1-0.03-0.34-0.1-0.51l-8.27-20.92c-0.17-0.41-0.54-0.78-1.12-0.78
		c-0.61,0-0.92,0.37-1.09,0.78l-8.27,20.92C152.37,357.51,152.34,357.75,152.34,357.89z M161.8,339.54l4.03,10.38h-8.04
		L161.8,339.54z"/>
	<path fill="#0D3082" d="M178.95,345.41c0.58,0,1.02-0.44,1.02-1.02s-0.44-1.02-1.02-1.02h-2.2v-3.56c0-0.58-0.48-1.08-1.09-1.08
		c-0.58,0-1.09,0.51-1.09,1.08v3.56h-1.32c-0.58,0-1.02,0.44-1.02,1.02s0.44,1.02,1.02,1.02h1.32v9.36c0,2.48,1.46,4.27,4.14,4.27
		c0.58,0,1.05-0.44,1.05-1.02s-0.47-1.02-1.05-1.02c-1.15,0-1.97-0.78-1.97-2.24v-9.36H178.95z"/>
	<path fill="#0D3082" d="M194.68,359.04c0.61,0,1.09-0.47,1.09-1.08v-9.05c0-2.88-1.02-6-6.24-6c-2.2,0-3.87,1.09-4.51,2.37v-9.56
		c0-0.61-0.48-1.09-1.09-1.09s-1.09,0.47-1.09,1.09v22.24c0,0.61,0.48,1.08,1.09,1.08s1.09-0.47,1.09-1.08v-8.38
		c0-2.71,1.15-4.75,4.51-4.75c3.29,0,4.07,1.83,4.07,4.51v8.61C193.59,358.57,194.07,359.04,194.68,359.04z"/>
	<path fill="#0D3082" d="M204.78,341.07l3.29-3.32c0.37-0.37,0.41-0.81-0.1-1.29c-0.54-0.47-1.02-0.34-1.29,0l-3.02,3.66
		c-0.24,0.3-0.3,0.68,0.1,1.02C204.17,341.48,204.47,341.38,204.78,341.07z"/>
	<path fill="#0D3082" d="M211.93,349.51c0-2.31-1.05-6.61-6.48-6.61c-4.41,0-6.98,2.91-6.98,8.14c0,5.7,2.81,8.17,7.32,8.17
		c3.02,0,4.78-1.39,5.29-1.9c0.2-0.2,0.37-0.41,0.37-0.78c0-0.54-0.44-0.98-0.98-0.98c-0.27,0-0.41,0.07-0.61,0.2
		c-0.95,0.71-2.1,1.46-4.07,1.46c-3.19,0-5.12-2.17-5.12-5.53h9.9C211.93,351.68,211.93,350.5,211.93,349.51z M200.68,349.78
		c0.2-3.02,1.83-4.92,4.78-4.92c3.49,0,4.34,2.48,4.34,4.92H200.68z"/>
	<path fill="#0D3082" d="M226.78,359.04c0.61,0,1.09-0.47,1.09-1.08v-9.05c0-2.88-1.02-6-6.24-6c-2.2,0-3.87,1.09-4.51,2.37v-1.09
		c0-0.61-0.48-1.08-1.09-1.08s-1.09,0.47-1.09,1.08v13.77c0,0.61,0.48,1.08,1.09,1.08s1.09-0.47,1.09-1.08v-8.38
		c0-2.71,1.15-4.75,4.51-4.75c3.29,0,4.07,1.83,4.07,4.51v8.61C225.7,358.57,226.17,359.04,226.78,359.04z"/>
	<path fill="#0D3082" d="M244.04,349.51c0-2.31-1.05-6.61-6.48-6.61c-4.41,0-6.98,2.91-6.98,8.14c0,5.7,2.81,8.17,7.32,8.17
		c3.02,0,4.78-1.39,5.29-1.9c0.2-0.2,0.37-0.41,0.37-0.78c0-0.54-0.44-0.98-0.98-0.98c-0.27,0-0.41,0.07-0.61,0.2
		c-0.95,0.71-2.1,1.46-4.07,1.46c-3.19,0-5.12-2.17-5.12-5.53h9.9C244.04,351.68,244.04,350.5,244.04,349.51z M232.78,349.78
		c0.2-3.02,1.83-4.92,4.78-4.92c3.49,0,4.34,2.48,4.34,4.92H232.78z"/>
	<path fill="#0D3082" d="M236.88,341.07l3.29-3.32c0.37-0.37,0.41-0.81-0.1-1.29c-0.54-0.47-1.02-0.34-1.29,0l-3.02,3.66
		c-0.24,0.3-0.3,0.68,0.1,1.02C236.27,341.48,236.58,341.38,236.88,341.07z"/>
	<path fill="#0D3082" d="M259.49,349.51c0-2.31-1.05-6.61-6.48-6.61c-4.41,0-6.98,2.92-6.98,8.14c0,5.7,2.81,8.17,7.32,8.17
		c3.02,0,4.78-1.39,5.29-1.9c0.2-0.2,0.37-0.41,0.37-0.78c0-0.54-0.44-0.98-0.98-0.98c-0.27,0-0.41,0.07-0.61,0.2
		c-0.95,0.71-2.1,1.46-4.07,1.46c-3.19,0-5.12-2.17-5.12-5.53h9.9C259.49,351.68,259.49,350.5,259.49,349.51z M248.24,349.78
		c0.2-3.02,1.83-4.92,4.78-4.92c3.49,0,4.34,2.48,4.34,4.92H248.24z"/>
	<path fill="#0D3082" d="M282.07,342.43c0-3.63-2.71-6.48-6.48-6.48h-6.75c-0.64,0-1.15,0.51-1.15,1.15v20.78
		c0,0.64,0.51,1.15,1.15,1.15c0.64,0,1.15-0.51,1.15-1.15v-8.98h3.42l6.88,9.59c0.27,0.41,0.64,0.54,0.98,0.54
		c0.65,0,1.15-0.51,1.15-1.15c0-0.24-0.07-0.51-0.24-0.71L276,348.9C279.66,348.73,282.07,345.92,282.07,342.43z M275.66,346.8H270
		v-8.75h5.56c2.44,0,4.17,1.86,4.17,4.37C279.73,344.87,278.03,346.8,275.66,346.8z"/>
	<path fill="#0D3082" d="M284.34,351.04c0,5.56,2.75,8.17,7.12,8.17c4.41,0,7.12-2.61,7.12-8.17c0-5.56-2.71-8.14-7.12-8.14
		C287.08,342.9,284.34,345.48,284.34,351.04z M296.37,351.04c0,4.34-1.8,6.21-4.92,6.21c-3.12,0-4.92-1.86-4.92-6.21
		c0-4.27,1.8-6.17,4.92-6.17C294.58,344.87,296.37,346.77,296.37,351.04z"/>
	<path fill="#0D3082" d="M300.1,363.55c-0.58,0-1.02,0.44-1.02,1.02c0,0.58,0.44,1.02,1.02,1.02c3.22,0,4.95-1.69,6.34-5.02
		l6.68-15.9c0.03-0.1,0.1-0.24,0.1-0.47c0-0.61-0.48-1.09-1.09-1.09s-0.88,0.37-1.02,0.71l-4.78,11.7l-4.78-11.7
		c-0.14-0.34-0.41-0.71-1.02-0.71c-0.61,0-1.08,0.47-1.08,1.09c0,0.24,0.07,0.37,0.1,0.47l5.66,13.46
		C303.83,361.55,303.05,363.55,300.1,363.55z"/>
	<path fill="#0D3082" d="M326.34,359.04c0.58,0,1.05-0.47,1.05-1.05v-9.32c0-3.46-2.17-5.76-6.1-5.76c-2.85,0-4.68,1.19-5.63,2.68
		c-0.1,0.17-0.17,0.34-0.17,0.58c0,0.54,0.44,0.98,0.98,0.98c0.3,0,0.54-0.1,0.88-0.47c1.05-1.19,2.14-1.73,3.93-1.73
		c2.47,0,4,1.42,4,3.73v0.92h-4.78c-3.66,0-5.93,1.8-5.93,4.78c0,3.12,2.27,4.85,5.87,4.85c2.03,0,4-0.85,4.85-2.44v1.22
		C325.29,358.57,325.76,359.04,326.34,359.04z M320.64,357.24c-2.64,0-3.86-1.12-3.86-2.88c0-1.97,1.53-2.88,3.73-2.88h4.78v1.43
		C325.29,355.79,323.02,357.24,320.64,357.24z"/>
	<path fill="#0D3082" d="M332.2,334.63c-0.58,0-1.08,0.51-1.08,1.09v19.36c0,2.61,1.25,3.97,3.52,3.97c0.54,0,1.02-0.44,1.02-1.02
		c0-0.58-0.47-1.02-1.02-1.02c-0.91,0-1.35-0.58-1.35-1.93v-19.36C333.29,335.14,332.81,334.63,332.2,334.63z"/>
	<path fill="#37A8DB" d="M344.54,335.68c-0.64,0-1.15,0.51-1.15,1.15v14.99c0,3.73,1.56,7.42,7.97,7.42c6.41,0,7.93-3.7,7.93-7.42
		v-14.99c0-0.64-0.51-1.15-1.15-1.15c-0.64,0-1.15,0.51-1.15,1.15v14.99c0,2.68-0.98,5.26-5.63,5.26c-4.68,0-5.66-2.58-5.66-5.26
		v-14.99C345.69,336.19,345.18,335.68,344.54,335.68z"/>
	<path fill="#37A8DB" d="M369.66,344.87c2.24,0,3.15,1.02,3.66,1.59c0.24,0.27,0.47,0.41,0.81,0.41c0.54,0,0.98-0.41,0.98-0.98
		c0-0.24-0.07-0.41-0.24-0.64c-0.54-0.75-2.2-2.34-5.22-2.34c-4.37,0-6.98,2.58-6.98,8.14c0,5.56,2.61,8.17,6.98,8.17
		c2.75,0,4.37-1.22,5.12-1.83c0.34-0.31,0.44-0.54,0.44-0.85c0-0.54-0.44-0.98-0.98-0.98c-0.24,0-0.41,0.07-0.64,0.24
		c-0.78,0.58-1.97,1.46-3.93,1.46c-3.12,0-4.78-1.97-4.78-6.21C364.88,346.87,366.54,344.87,369.66,344.87z"/>
	<path fill="#37A8DB" d="M384.27,344.87c2.24,0,3.15,1.02,3.66,1.59c0.24,0.27,0.47,0.41,0.81,0.41c0.54,0,0.98-0.41,0.98-0.98
		c0-0.24-0.07-0.41-0.24-0.64c-0.54-0.75-2.2-2.34-5.22-2.34c-4.37,0-6.98,2.58-6.98,8.14c0,5.56,2.61,8.17,6.98,8.17
		c2.75,0,4.37-1.22,5.12-1.83c0.34-0.31,0.44-0.54,0.44-0.85c0-0.54-0.44-0.98-0.98-0.98c-0.24,0-0.41,0.07-0.64,0.24
		c-0.78,0.58-1.97,1.46-3.93,1.46c-3.12,0-4.78-1.97-4.78-6.21C379.49,346.87,381.15,344.87,384.27,344.87z"/>
	<path fill="#37A8DB" d="M393.66,334.63c-0.58,0-1.09,0.51-1.09,1.09v19.36c0,2.61,1.25,3.97,3.53,3.97c0.54,0,1.02-0.44,1.02-1.02
		c0-0.58-0.48-1.02-1.02-1.02c-0.92,0-1.35-0.58-1.35-1.93v-19.36C394.74,335.14,394.27,334.63,393.66,334.63z"/>
	<path fill="#37A8DB" d="M412.1,349.51c0-2.31-1.05-6.61-6.48-6.61c-4.41,0-6.98,2.92-6.98,8.14c0,5.7,2.81,8.17,7.32,8.17
		c3.02,0,4.78-1.39,5.29-1.9c0.2-0.2,0.37-0.41,0.37-0.78c0-0.54-0.44-0.98-0.98-0.98c-0.27,0-0.41,0.07-0.61,0.2
		c-0.95,0.71-2.1,1.46-4.07,1.46c-3.19,0-5.12-2.17-5.12-5.53h9.9C412.1,351.68,412.1,350.5,412.1,349.51z M400.85,349.78
		c0.2-3.02,1.83-4.92,4.78-4.92c3.49,0,4.34,2.48,4.34,4.92H400.85z"/>
	<path fill="#37A8DB" d="M425.32,359.04c0.61,0,1.12-0.51,1.12-1.12V336.8c0-0.61-0.51-1.12-1.12-1.12c-0.24,0-0.44,0.07-0.68,0.24
		l-5.32,3.7c-0.31,0.2-0.47,0.58-0.47,0.92c0,0.58,0.51,1.08,1.08,1.08c0.24,0,0.44-0.07,0.64-0.2l3.63-2.61v19.12
		C424.2,358.53,424.71,359.04,425.32,359.04z"/>
</g>
</svg>
