<svg id="Calque_1" data-name="Calque 1" xmlns="http://www.w3.org/2000/svg" xmlns:xlink="http://www.w3.org/1999/xlink" viewBox="0 0 274.4 279.65"><defs><clipPath id="clip-path" transform="translate(-152.34 -85.94)"><rect class="cls-1" width="595.28" height="453.55"/></clipPath></defs><title>ARU1</title><g opacity=".04" fill="#4869EE" class="cls-2"><path class="cls-3" d="M426.74,225c-2.08,3.44-2.38,7.47-3.66,11.18-11.94,34.63-44.64,59.66-79.6,60.77-40.19,1.28-73.87-19.86-88.64-55.64-.54-1.3-1.07-2.61-1.76-4.31,2.82.25,4.42,2.1,6.28,3.26,26.71,16.59,55.68,25.09,87.19,23.5,25.27-1.28,48.27-8.95,67.11-26.72a67.61,67.61,0,0,0,8.82-10.14c1.14-1.61,2.23-3.26,4.26-3.9Z" transform="translate(-152.34 -85.94)"/><path class="cls-4" d="M332.35,301.27c-21.9,18.17-63.77,22.61-94.86-1.72-32.36-25.33-37.58-68.22-22.78-96.66,1.71,2.15,1.51,4.76,2.12,7.06,9.45,35.63,28.38,64.26,61.15,82.54,16.86,9.41,30.36,11.4,54.37,8.78" transform="translate(-152.34 -85.94)"/><path class="cls-5" d="M220.77,289c-24.2-3.72-51.77-26.46-54.84-60.77-3.66-41,25.6-67.44,49.16-73.1C200,175.88,191.38,198.55,191.2,223.8c-.18,25.58,7.52,48.09,29.57,65.23" transform="translate(-152.34 -85.94)"/><path class="cls-6" d="M245.94,127.13c-48.6,3.53-85.95,38.92-84.33,76.29-9.43-12.51-11.9-45.09,9.14-67.39,19.17-20.33,53.4-24.72,75.19-8.9" transform="translate(-152.34 -85.94)"/><path class="cls-7" d="M231.84,85.94h8.09c23.49,2.55,41,18.89,44.42,41.4-28.89-23.52-59.18-35-93.5-11.25,1.16-12.8,21.66-28.24,41-30.15" transform="translate(-152.34 -85.94)"/><path class="cls-8" d="M268.19,88.52A39,39,0,0,1,314,108.72c7.51,15.25,3.91,36.24-7.65,44.61,3.26-33.62-11.05-58.17-38.14-64.81" transform="translate(-152.34 -85.94)"/><path class="cls-9" d="M269.24,204.09l-5.86,14.68a2.79,2.79,0,0,1-2.65,1.92A2.75,2.75,0,0,1,258,218a3.22,3.22,0,0,1,.24-1.21l19.57-49.48a2.65,2.65,0,0,1,2.56-1.85,2.84,2.84,0,0,1,2.65,1.85l19.57,49.48a4,4,0,0,1,.24,1.21,2.81,2.81,0,0,1-5.45.88l-5.78-14.76Zm11.14-29.51-9.46,24.54h19Z" transform="translate(-152.34 -85.94)"/><path class="cls-9" d="M316.88,218a2.73,2.73,0,0,1-5.46,0V168.8a2.71,2.71,0,0,1,2.73-2.72h16a15,15,0,0,1,15.32,15.31c0,8.26-5.7,14.92-14.36,15.32l14.68,19.57a2.67,2.67,0,0,1,.56,1.69,2.73,2.73,0,0,1-5.05,1.44L325,196.71h-8.1Zm0-26.23h13.39c5.61,0,9.62-4.57,9.62-10.35s-4.09-10.34-9.86-10.34H316.88Z" transform="translate(-152.34 -85.94)"/><path class="cls-10" d="M353.61,202.41V170.09a4.65,4.65,0,1,1,9.3,0v32.32c0,4.89,1.85,10.58,10.91,10.58s10.91-5.69,10.91-10.58V170.09a4.65,4.65,0,1,1,9.3,0v32.32c0,9.14-4,18.76-20.21,18.76s-20.21-9.62-20.21-18.76" transform="translate(-152.34 -85.94)"/><path class="cls-10" d="M407.42,181.07a4.2,4.2,0,0,1-2.64.88,4.44,4.44,0,0,1-4.41-4.41,4.39,4.39,0,0,1,1.92-3.69l11.55-7.45a4.57,4.57,0,0,1,7.38,3.61v46.11a4.57,4.57,0,0,1-9.14,0V178Z" transform="translate(-152.34 -85.94)"/><path class="cls-9" d="M157.08,352l-2.47,6.21a1.18,1.18,0,0,1-1.12.81,1.16,1.16,0,0,1-1.15-1.15,1.29,1.29,0,0,1,.1-.51l8.27-20.92a1.12,1.12,0,0,1,1.09-.78,1.2,1.2,0,0,1,1.12.78l8.27,20.92a1.62,1.62,0,0,1,.1.51,1.19,1.19,0,0,1-2.3.37L166.54,352Zm4.72-12.48-4,10.38h8Z" transform="translate(-152.34 -85.94)"/><path class="cls-9" d="M174.58,339.82a1.11,1.11,0,0,1,1.08-1.09,1.1,1.1,0,0,1,1.09,1.09v3.56H179a1,1,0,1,1,0,2h-2.2v9.36c0,1.46.81,2.24,2,2.24a1,1,0,1,1,0,2c-2.68,0-4.13-1.8-4.13-4.27v-9.36h-1.33a1,1,0,0,1,0-2h1.33Z" transform="translate(-152.34 -85.94)"/><path class="cls-9" d="M195.76,348.9V358a1.09,1.09,0,0,1-2.17,0v-8.62c0-2.68-.78-4.51-4.06-4.51s-4.51,2-4.51,4.75V358a1.09,1.09,0,0,1-2.17,0V335.71a1.09,1.09,0,0,1,2.17,0v9.56a4.94,4.94,0,0,1,4.51-2.37c5.22,0,6.23,3.12,6.23,6" transform="translate(-152.34 -85.94)"/><path class="cls-9" d="M205.46,342.9c5.42,0,6.47,4.31,6.47,6.61,0,1,0,2.17-1.35,2.17h-9.9c0,3.36,1.93,5.53,5.12,5.53a6.28,6.28,0,0,0,4.07-1.46,1,1,0,0,1,.61-.2,1,1,0,0,1,1,1,1,1,0,0,1-.37.78,7.57,7.57,0,0,1-5.29,1.9c-4.51,0-7.33-2.48-7.33-8.17,0-5.22,2.58-8.14,7-8.14m0,2c-3,0-4.58,1.9-4.78,4.91h9.12c0-2.44-.85-4.91-4.34-4.91m-1.8-4.75,3-3.66c.27-.34.74-.48,1.29,0a.81.81,0,0,1,.1,1.29l-3.29,3.32a.65.65,0,0,1-1,.07.67.67,0,0,1-.1-1" transform="translate(-152.34 -85.94)"/><path class="cls-9" d="M227.87,348.9V358a1.09,1.09,0,0,1-2.17,0v-8.62c0-2.68-.78-4.51-4.07-4.51s-4.51,2-4.51,4.75V358a1.09,1.09,0,0,1-2.17,0V344.19a1.09,1.09,0,1,1,2.17,0v1.08a4.94,4.94,0,0,1,4.51-2.37c5.22,0,6.24,3.12,6.24,6" transform="translate(-152.34 -85.94)"/><path class="cls-9" d="M237.56,342.9c5.42,0,6.48,4.31,6.48,6.61,0,1,0,2.17-1.36,2.17h-9.9c0,3.36,1.93,5.53,5.12,5.53a6.25,6.25,0,0,0,4.07-1.46,1,1,0,0,1,.61-.2,1,1,0,0,1,1,1,1,1,0,0,1-.37.78,7.54,7.54,0,0,1-5.29,1.9c-4.51,0-7.32-2.48-7.32-8.17,0-5.22,2.57-8.14,7-8.14m0,2c-2.95,0-4.58,1.9-4.78,4.91h9.12c0-2.44-.85-4.91-4.34-4.91m-1.8-4.75,3-3.66a.82.82,0,0,1,1.29,0,.8.8,0,0,1,.1,1.29l-3.29,3.32a.65.65,0,0,1-1,.07.68.68,0,0,1-.1-1" transform="translate(-152.34 -85.94)"/><path class="cls-9" d="M253,342.9c5.42,0,6.47,4.31,6.47,6.61,0,1,0,2.17-1.35,2.17h-9.9c0,3.36,1.93,5.53,5.12,5.53a6.25,6.25,0,0,0,4.06-1.46,1,1,0,0,1,1.22,1.56,7.51,7.51,0,0,1-5.28,1.9c-4.51,0-7.33-2.48-7.33-8.17,0-5.22,2.58-8.14,7-8.14m0,2c-3,0-4.58,1.9-4.78,4.91h9.12c0-2.44-.85-4.91-4.34-4.91" transform="translate(-152.34 -85.94)"/><path class="cls-9" d="M270,357.89a1.16,1.16,0,0,1-2.31,0V337.1a1.15,1.15,0,0,1,1.16-1.15h6.74a6.33,6.33,0,0,1,6.48,6.48A6.24,6.24,0,0,1,276,348.9l6.2,8.28a1.11,1.11,0,0,1,.24.71,1.15,1.15,0,0,1-2.13.61l-6.89-9.6H270Zm0-11.09h5.66a4.38,4.38,0,0,0-.1-8.75H270Z" transform="translate(-152.34 -85.94)"/><path class="cls-9" d="M298.58,351c0,5.56-2.72,8.17-7.12,8.17s-7.12-2.61-7.12-8.17,2.74-8.14,7.12-8.14,7.12,2.58,7.12,8.14m-2.21,0c0-4.27-1.79-6.17-4.91-6.17s-4.92,1.9-4.92,6.17,1.8,6.2,4.92,6.2,4.91-1.86,4.91-6.2" transform="translate(-152.34 -85.94)"/><path class="cls-9" d="M305.22,358.12l-5.66-13.46a1.1,1.1,0,0,1-.1-.47,1.07,1.07,0,0,1,1.08-1.09,1,1,0,0,1,1,.72l4.78,11.69,4.78-11.69a1,1,0,0,1,1-.72,1.07,1.07,0,0,1,1.08,1.09,1.27,1.27,0,0,1-.1.47l-6.68,15.91c-1.39,3.32-3.12,5-6.34,5a1,1,0,1,1,0-2c2.95,0,3.73-2,5.12-5.43" transform="translate(-152.34 -85.94)"/><path class="cls-9" d="M317.35,346.66a1.07,1.07,0,0,1-.88.48,1,1,0,0,1-1-1,1.07,1.07,0,0,1,.17-.58,6.31,6.31,0,0,1,5.63-2.68c3.93,0,6.1,2.31,6.1,5.77V358a1.05,1.05,0,0,1-2.1,0v-1.22a5.39,5.39,0,0,1-4.85,2.44c-3.59,0-5.87-1.73-5.87-4.85s2.28-4.78,5.94-4.78h4.78v-.91c0-2.31-1.53-3.73-4-3.73a4.73,4.73,0,0,0-3.94,1.72m7.94,6.24v-1.42h-4.78c-2.21,0-3.73.91-3.73,2.88,0,1.76,1.22,2.88,3.86,2.88,2.38,0,4.65-1.45,4.65-4.34" transform="translate(-152.34 -85.94)"/><path class="cls-9" d="M333.29,335.71v19.36c0,1.36.44,1.94,1.35,1.94a1,1,0,1,1,0,2c-2.27,0-3.52-1.36-3.52-4V335.71a1.12,1.12,0,0,1,1.08-1.08,1.1,1.1,0,0,1,1.09,1.08" transform="translate(-152.34 -85.94)"/><path class="cls-10" d="M343.39,351.82v-15a1.15,1.15,0,0,1,2.3,0v15c0,2.68,1,5.25,5.66,5.25s5.63-2.57,5.63-5.25v-15a1.16,1.16,0,0,1,2.31,0v15c0,3.73-1.53,7.42-7.94,7.42s-8-3.69-8-7.42" transform="translate(-152.34 -85.94)"/><path class="cls-10" d="M369.66,342.9a6.36,6.36,0,0,1,5.22,2.34,1,1,0,0,1,.24.64,1,1,0,0,1-1,1,1,1,0,0,1-.82-.41,4.32,4.32,0,0,0-3.66-1.59c-3.12,0-4.78,2-4.78,6.17s1.66,6.2,4.78,6.2a6.2,6.2,0,0,0,3.93-1.45,1,1,0,0,1,.65-.24,1,1,0,0,1,1,1,1.05,1.05,0,0,1-.44.85,7.74,7.74,0,0,1-5.12,1.83c-4.37,0-7-2.61-7-8.17s2.61-8.14,7-8.14" transform="translate(-152.34 -85.94)"/><path class="cls-10" d="M384.27,342.9a6.36,6.36,0,0,1,5.22,2.34,1,1,0,0,1,.24.64,1,1,0,0,1-1,1,1,1,0,0,1-.82-.41,4.32,4.32,0,0,0-3.66-1.59c-3.12,0-4.78,2-4.78,6.17s1.66,6.2,4.78,6.2a6.2,6.2,0,0,0,3.93-1.45,1,1,0,0,1,.65-.24,1,1,0,0,1,1,1,1.05,1.05,0,0,1-.44.85,7.74,7.74,0,0,1-5.12,1.83c-4.37,0-7-2.61-7-8.17s2.61-8.14,7-8.14" transform="translate(-152.34 -85.94)"/><path class="cls-10" d="M394.74,335.71v19.36c0,1.36.44,1.94,1.36,1.94a1,1,0,1,1,0,2c-2.27,0-3.53-1.36-3.53-4V335.71a1.12,1.12,0,0,1,1.09-1.08,1.09,1.09,0,0,1,1.08,1.08" transform="translate(-152.34 -85.94)"/><path class="cls-10" d="M405.63,342.9c5.42,0,6.47,4.31,6.47,6.61,0,1,0,2.17-1.35,2.17h-9.9c0,3.36,1.93,5.53,5.11,5.53a6.25,6.25,0,0,0,4.07-1.46,1,1,0,0,1,1.6.78,1,1,0,0,1-.37.78,7.58,7.58,0,0,1-5.3,1.9c-4.5,0-7.32-2.48-7.32-8.17,0-5.22,2.58-8.14,7-8.14m0,2c-2.95,0-4.58,1.9-4.78,4.91H410c0-2.44-.85-4.91-4.34-4.91" transform="translate(-152.34 -85.94)"/><path class="cls-10" d="M420.57,341.41a1.06,1.06,0,0,1-.64.2,1.12,1.12,0,0,1-1.09-1.08,1.13,1.13,0,0,1,.48-.92l5.32-3.69a1.11,1.11,0,0,1,.68-.24,1.13,1.13,0,0,1,1.12,1.12v21.12a1.12,1.12,0,0,1-2.24,0V338.8Z" transform="translate(-152.34 -85.94)"/></g></svg>