<?xml version="1.0" encoding="utf-8"?>
<!-- Generator: Adobe Illustrator 22.0.0, SVG Export Plug-In . SVG Version: 6.00 Build 0)  -->
<svg version="1.1" id="Calque_1" xmlns="http://www.w3.org/2000/svg" xmlns:xlink="http://www.w3.org/1999/xlink" x="0px" y="0px"
	 viewBox="0 0 38.2 49.7" style="enable-background:new 0 0 38.2 49.7;" xml:space="preserve">
<style type="text/css">
	.st0{fill:#DF3B33;}
	.st1{fill:#F6AE3C;}
	.st2{fill:#3F4A82;}
</style>
<g>
	<path class="st0" d="M19.6,0c0.4,0,1.1,0.3,1.4,0.3c2.4,0.6,3.3,2.9,2,5.1c-0.6,1-1.5,1.6-2.5,2.1c-5.5,2.6-9.4,6.8-11.9,12.2
		C6.9,23.4,6.1,27.1,5.6,31c-0.5,3.4,0.1,6.7,0.3,10.1c0,0.6,0.1,1.4-0.2,1.6c-0.6,0.4-1.1-0.5-1.4-1.1c-1.8-3.2-3-6.6-3.8-10.1
		C-2,19.4,4.2,8.3,12.8,2.2c0.7-0.5,1.9-1,2.9-1.4C16.9,0.3,18.2,0,19.6,0C19.5,0,19.5,0,19.6,0z"/>
	<path class="st1" d="M26,24.3c0,2.4-1,4.3-2.1,6c-1.9,3.2-4.1,6.2-6.7,8.9c-0.5,0.6-1.1,1.1-1.8,1.5c-2.3,1.1-4.2-0.8-4.7-3.1
		c-1.5-6,1.5-13.3,7-16.4c2-1.1,4.1-1.6,6.3-0.4C25.4,21.6,26.2,22.7,26,24.3z"/>
	<path class="st2" d="M19.5,49.7c-3.3,0-6.4-1-9.3-2.5c-0.3-0.2-0.8-0.4-0.6-0.9c0.2-0.6,0.8-0.6,1.2-0.5c3.2,0.1,6.4,0.1,9.5-0.7
		c4.7-1.2,8.6-3.5,11.3-7.6c0.6-0.9,1-1.8,1.4-2.8c0.4-1,1.1-1.9,2.3-2.1c1.8-0.3,3.2,1.3,2.9,3.4c-0.3,2.3-1.4,4.2-2.9,5.8
		c-3.6,3.9-7.9,6.8-13.3,7.7C21.1,49.6,20.3,49.6,19.5,49.7z"/>
</g>
</svg>
