<?xml version="1.0" encoding="UTF-8"?>
<svg enable-background="new 0 0 512 512" version="1.1" viewBox="0 0 512 512" xml:space="preserve" xmlns="http://www.w3.org/2000/svg">
<circle cx="66.06" cy="218.84" r="66.06" fill="#965A50"/>
<circle cx="66.06" cy="218.84" r="41.29" fill="#D4AF91"/>
<circle cx="445.94" cy="218.84" r="66.06" fill="#965A50"/>
<circle cx="445.94" cy="218.84" r="41.29" fill="#EBC9A0"/>
<path d="m442.59 257.92c-8.366-14.435-13.169-30.655-13.169-47.34v-1e-3c0-72.373-44.364-134.33-107.36-160.32v-29.616l-41.29 16.516-8.258-33.032c-21.781 7.261-40.361 22.498-54.356 37.298-77.557 17.283-135.58 86.39-135.58 169.15 0 16.685-4.803 32.904-13.169 47.34-12.72 21.948-19.863 46.482-19.863 72.402 0 93.496 92.431 169.29 206.45 169.29s206.45-75.794 206.45-169.29c-1e-3 -25.92-7.145-50.455-19.864-72.403z" fill="#AF6E5A"/>
<path d="m140.39 359.91c0-30.24 7.143-58.864 19.863-84.469 8.367-16.841 13.169-35.764 13.169-55.23 0-84.035 43.969-155.96 106.49-186.5l-7.396-29.584c-21.781 7.261-40.361 22.498-54.357 37.298-77.555 17.283-135.58 86.39-135.58 169.15 0 16.685-4.802 32.904-13.169 47.34-12.72 21.948-19.863 46.482-19.863 72.402 0 75.465 60.232 139.37 143.42 161.22-32.682-34.941-52.577-81.056-52.577-131.63z" fill="#965A50"/>
<path d="m256 466.58c68.412 0 123.87-44.367 123.87-99.097 0-11.354-2.414-22.245-6.835-32.386-6.41-14.707-4.228-31.587 6.07-43.889 13.134-15.691 19.908-36.877 16.333-59.635-4.91-31.259-30.182-56.486-61.448-61.353-23.892-3.719-46.037 3.968-61.903 18.439-4.51 4.113-10.3 6.17-16.087 6.17-5.79 0-11.581-2.056-16.091-6.17-15.866-14.471-38.011-22.158-61.903-18.439-31.266 4.866-56.537 30.094-61.448 61.353-3.575 22.757 3.199 43.943 16.333 59.635 10.298 12.303 12.48 29.182 6.07 43.889-4.42 10.142-6.835 21.033-6.835 32.386 2e-3 54.729 55.461 99.097 123.87 99.097z" fill="#FAEBC8"/>
<path d="m132.13 367.48c0 18.522 6.468 35.795 17.524 50.625-5.938-18.411-9.266-37.916-9.266-58.195 0-30.24 7.143-58.864 19.863-84.469 8.367-16.841 13.169-35.764 13.169-55.23 0-17.307 1.96-34.056 5.468-50.08-0.295 0.042-0.583 0.04-0.879 0.086-31.266 4.866-56.536 30.094-61.448 61.352-3.575 22.758 3.2 43.944 16.333 59.635 10.298 12.302 12.481 29.181 6.071 43.889-4.421 10.143-6.835 21.034-6.835 32.387z" fill="#F5DCB4"/>
<g fill="#5D5360">
	<path d="m239.48 326.19c-1.242 0-2.5-0.278-3.685-0.871l-16.516-8.258c-4.081-2.04-5.734-7-3.694-11.081 2.048-4.081 7-5.734 11.081-3.694l16.516 8.258c4.081 2.04 5.734 7 3.694 11.081-1.453 2.895-4.364 4.565-7.396 4.565z"/>
	<path d="m272.52 326.19c-3.032 0-5.944-1.669-7.395-4.565-2.04-4.081-0.387-9.04 3.694-11.081l16.516-8.258c4.073-2.04 9.032-0.387 11.081 3.694 2.04 4.081 0.387 9.04-3.694 11.081l-16.516 8.258c-1.186 0.592-2.444 0.871-3.686 0.871z"/>
</g>
<path d="m182.32 359.22c-5.001 0-8.941 4.431-8.248 9.384 5.126 36.617 39.853 64.938 81.929 64.938 42.077 0 76.803-28.321 81.929-64.938 0.693-4.953-3.247-9.384-8.248-9.384h-147.36z" fill="#4B3F4E"/>
<path d="m208.42 419.91c13.457 8.563 29.849 13.639 47.583 13.639s34.126-5.076 47.583-13.639c-5.966-20.667-25.063-35.909-47.583-35.909s-41.617 15.242-47.583 35.909z" fill="#E6646E"/>
<path d="m256 433.55c2.792 0 5.538-0.169 8.258-0.415v-16.101c0-4.56-3.694-8.258-8.258-8.258s-8.258 3.698-8.258 8.258v16.101c2.72 0.246 5.466 0.415 8.258 0.415z" fill="#FF8087"/>
<path d="m66.065 259.44c-24.354 55.119-48.609 142.79-63.038 229.32-1.67 10.016 6.164 19.105 16.318 19.105h65.518c8.18 0 15.077-5.997 16.334-14.08 16.799-108.02 44.006-182.05 44.006-182.05l-79.138-52.301z" fill="#AF6E5A"/>
<path d="m38.839 507.87c13.612-77.595 41.013-169.23 63.308-224.58l-36.083-23.846c-24.353 55.12-48.608 142.79-63.037 229.33-1.67 10.016 6.164 19.105 16.318 19.105h19.494z" fill="#965A50"/>
<path d="m79.227 144.99c11.768 2.265 19.865 13.257 19.865 25.24v33.019l26.536-26.536c23.229-23.229 60.346-27.609 86.874-8.234 33.435 24.419 36.092 72.126 7.971 100.25l-37.025 37.025c-24.599 24.599-64.853 24.599-89.452 0l-10.586-10.586c-21.682-21.682-33.862-51.088-33.862-81.751v-44.127c-6e-3 -15.284 13.848-27.344 29.679-24.297z" fill="#F5DCB4"/>
<path d="m209 166.17c-26.216-16.599-61.143-11.691-83.375 10.54l-26.535 26.536v-33.019c0-11.984-8.098-22.975-19.865-25.24-15.832-3.047-29.684 9.013-29.678 24.297v44.127c0 30.662 12.18 60.069 33.863 81.751l10.585 10.586c-9.09-33.611 38.03-138.26 115-139.58z" fill="#EBC9A0"/>
<path d="m446.2 259.44c24.354 55.12 48.608 142.79 63.038 229.33 1.67 10.016-6.164 19.105-16.318 19.105h-65.518c-8.18 0-15.077-5.997-16.334-14.08-16.799-108.02-44.006-182.05-44.006-182.05l79.138-52.302z" fill="#AF6E5A"/>
<path d="m433.03 144.99c-11.768 2.265-19.865 13.257-19.865 25.24v33.019l-26.536-26.536c-23.229-23.229-60.346-27.609-86.874-8.234-33.435 24.419-36.092 72.126-7.971 100.25l37.025 37.025c24.599 24.599 64.853 24.599 89.452 0l10.586-10.586c21.682-21.682 33.862-51.088 33.862-81.751v-44.127c6e-3 -15.284-13.848-27.344-29.679-24.297z" fill="#F5DCB4"/>
</svg>
