<?xml version="1.0" encoding="UTF-8"?>
<svg enable-background="new 0 0 512 512" version="1.1" viewBox="0 0 512 512" xml:space="preserve" xmlns="http://www.w3.org/2000/svg">
	<path d="m333.57 464.17c-11.823 0-23.476-4.032-32.903-11.891-3.504-2.919-3.976-8.125-1.056-11.629 2.919-3.5 8.121-3.976 11.629-1.056 10.956 9.133 26.379 10.625 39.29 3.823 14.145-7.452 21.242-22.621 19.46-41.613-3.145-33.548 1.169-61.726 6.843-74.774 10.698-24.601 26.968-37.226 40.04-47.367 7.117-5.524 13.262-10.29 17.504-16 5.677-7.633 13.327-22.315 0.79-34.855-3.734-3.73-9.52-5.089-14.746-3.468-2.44 0.758-6.681 2.831-7.665 8.173-1.371 7.286 2.214 9.762 5.46 10.56 4.371 1.073 7.157 5.472 6.161 9.859-0.992 4.387-5.246 7.185-9.645 6.286-9.21-1.907-21.657-11.395-18.214-29.726 1.835-9.96 8.935-17.794 18.996-20.923 11.02-3.44 23.31-0.456 31.331 7.56 15.339 15.339 15.633 36.415 0.79 56.387-5.589 7.52-12.899 13.19-20.637 19.194-12.786 9.919-26.008 20.177-35.02 40.907-3.355 7.714-8.831 31.577-5.544 66.645 2.399 25.605-8.145 47.198-28.21 57.766-7.82 4.118-16.279 6.142-24.654 6.142z" fill="#824641"/>
	<path d="m90.977 445.94c-0.317-74.244 30.393-103.39 46.008-113.21 4.403-2.771 10.205-0.843 12.096 4.003l7.706 19.746 26.839 72.947h132.13l26.839-72.947 7.706-19.746c1.891-4.846 7.694-6.774 12.096-4.003 15.615 9.826 46.325 38.968 46.008 113.21h37.408c3.594-162.01-97.025-198.19-97.025-198.19h-198.19s-100.62 36.187-97.025 198.19h37.408z" fill="#965A50"/>
	<path d="m249.69 478.97 66.328-103.18c-12.238-26.947-37.308-45.468-66.328-45.468s-54.09 18.522-66.328 45.468l66.328 103.18z" fill="#EBC9A0"/>
	<path d="m150.59 247.74s-10.626 3.833-24.829 14.476c25.017 35.739 71.132 59.846 123.93 59.846s98.909-24.107 123.93-59.846c-14.203-10.643-24.83-14.476-24.83-14.476h-198.19z" fill="#824641"/>
	<circle cx="134.08" cy="132.13" r="41.29" fill="#965A50"/>
	<circle cx="134.08" cy="132.13" r="24.774" fill="#EBC9A0"/>
	<circle cx="365.3" cy="132.13" r="41.29" fill="#965A50"/>
	<circle cx="365.3" cy="132.13" r="24.774" fill="#EBC9A0"/>
	<path d="m364.75 156.5c-3.869-6.676-6.503-13.972-7.578-21.542l-1.975-18.551c-2.035-19.113-8.357-37.777-19.892-53.153-11.474-15.294-26.953-27.414-44.879-34.809v-18.265l-25.462 10.185-5.092-20.37c-13.431 4.477-24.89 13.873-33.52 23.001-47.823 10.657-83.603 53.268-83.607 104.3-1e-3 9.999-2.632 19.901-7.717 28.511-8.096 13.709-12.653 29.083-12.653 45.339 0 57.656 56.999 104.4 127.31 104.4s127.31-46.739 127.31-104.4c0-15.984-4.406-31.114-12.249-44.648z" fill="#AF6E5A"/>
	<path d="m191.88 217.26c0-18.893 4.557-36.759 12.653-52.692 5.085-10.006 7.717-21.514 7.717-33.134 0-81.882 52.714-111.06 52.714-111.06l-5.092-20.37c-13.431 4.477-24.89 13.873-33.52 23.001-47.823 10.657-83.603 53.268-83.607 104.3-1e-3 9.999-2.632 19.901-7.717 28.511-8.096 13.71-12.653 29.083-12.653 45.339 0 52.309 46.968 95.506 108.18 103.09-23.82-22.047-38.673-52.844-38.673-86.988z" fill="#965A50"/>
	<path d="m332.27 148.64v-6.781c0-16.941-12.111-32.236-28.93-34.262-12.44-1.499-23.695 3.927-30.464 12.928-5.488 7.298-13.722 11.643-22.853 11.599-0.111-1e-3 -0.222-1e-3 -0.333-1e-3s-0.222 0-0.333 1e-3c-9.132 0.044-17.366-4.301-22.854-11.599-6.769-9.001-18.023-14.426-30.463-12.928-16.82 2.026-28.931 17.321-28.931 34.262v6.781c0 8.175 2.976 15.648 7.899 21.41 3.742 4.38 4.906 10.26 3.296 15.792-2.258 7.762-3.293 16.041-2.828 24.639 2.072 38.307 34.517 69.601 72.874 70.276 41.66 0.733 75.662-32.818 75.662-74.311 0-7.199-1.046-14.146-2.971-20.721-1.605-5.484-0.399-11.316 3.316-15.658 4.932-5.764 7.913-13.243 7.913-21.427z" fill="#FAEBC8"/>
	<path d="m191.88 217.26c0-18.893 4.557-36.759 12.653-52.692 5.085-10.006 7.717-21.514 7.717-33.134 0-7.549 0.574-14.504 1.387-21.175-5.275-2.373-11.28-3.414-17.6-2.653-16.82 2.026-28.931 17.321-28.931 34.262v6.781c0 8.175 2.976 15.648 7.899 21.41 3.742 4.38 4.905 10.261 3.296 15.792-2.258 7.762-3.293 16.04-2.828 24.639 1.105 20.435 10.905 38.818 25.583 51.678-5.843-13.899-9.176-29.014-9.176-44.908z" fill="#F5DCB4"/>
	<g fill="#4B3F4E">
		<path d="m233.18 198.19c-1.077 0-2.149-0.25-3.141-0.661-1.073-0.415-1.899-0.992-2.722-1.734-1.488-1.569-2.395-3.718-2.395-5.863 0-2.149 0.907-4.294 2.395-5.863 0.823-0.746 1.649-1.323 2.722-1.738 3.056-1.319 6.69-0.577 9.004 1.738 0.331 0.411 0.661 0.823 0.988 1.238 0.331 0.496 0.581 0.992 0.746 1.484 0.246 0.496 0.411 0.992 0.496 1.488 0.081 0.577 0.165 1.157 0.165 1.653 0 2.145-0.911 4.294-2.395 5.863-1.569 1.483-3.718 2.395-5.863 2.395z"/>
		<path d="m266.21 198.19c-1.077 0-2.149-0.25-3.141-0.661-0.988-0.415-1.899-0.992-2.722-1.734-1.488-1.569-2.395-3.718-2.395-5.863 0-2.149 0.907-4.294 2.395-5.863 0.823-0.746 1.734-1.323 2.722-1.738 1.984-0.907 4.294-0.907 6.278 0 0.992 0.415 1.899 0.992 2.726 1.738 0.331 0.411 0.661 0.823 0.988 1.238 0.331 0.496 0.581 0.992 0.746 1.484 0.246 0.496 0.411 0.992 0.496 1.488 0.081 0.577 0.165 1.157 0.165 1.653 0 2.145-0.911 4.294-2.395 5.863-0.827 0.742-1.734 1.319-2.726 1.734-0.992 0.411-2.065 0.661-3.137 0.661z"/>
		<path d="m212.68 222.97c-5.486 0-9.515 5.275-7.994 10.546 5.194 18.003 23.373 31.295 45.001 31.295s39.807-13.292 45.001-31.295c1.521-5.271-2.508-10.546-7.994-10.546h-74.014z"/>
		<path d="m200.14 165.16c-9.122 0-16.516-7.395-16.516-16.516v-8.258c0-9.122 7.395-16.516 16.516-16.516 9.122 0 16.516 7.395 16.516 16.516v8.258c0 9.122-7.394 16.516-16.516 16.516z"/>
	</g>
	<path d="m197.14 367.29c-7.114-15.117-26.004-20.375-39.905-11.107-12.72 8.48-16.015 25.742-7.314 38.312l58.484 84.477h41.29l-52.555-111.68z" fill="#AF6E5A"/>
	<path d="m317.05 478.97h-134.72c-17.526 0-31.736 14.209-31.736 31.736v1.296h198.19v-1.296c-1e-3 -17.528-14.209-31.736-31.736-31.736z" fill="#F5DCB4"/>
	<path d="m342.15 356.18c-13.901-9.268-32.791-4.01-39.905 11.107l-52.556 111.68h41.29l58.484-84.477c8.703-12.569 5.407-29.832-7.313-38.312z" fill="#AF6E5A"/>
	<circle cx="200.14" cy="140.39" r="8.258" fill="#fff"/>
	<path d="m299.24 165.16c-9.122 0-16.516-7.395-16.516-16.516v-8.258c0-9.122 7.395-16.516 16.516-16.516 9.122 0 16.516 7.395 16.516 16.516v8.258c0 9.122-7.394 16.516-16.516 16.516z" fill="#4B3F4E"/>
	<circle cx="299.24" cy="140.39" r="8.258" fill="#fff"/>
	<path d="m55.829 482.26c1.821 16.855 15.95 29.741 32.903 29.741l20.572 1e-3c4.561 0 8.258-3.698 8.258-8.258v-8.258c0-9.122-7.394-16.516-16.516-16.516h-8.258c-1.339-11.92-1.94-22.875-1.991-33.032h-37.354c0.259 11.478 1.007 23.547 2.386 36.322z" fill="#F5DCB4"/>
	<rect x="241.43" y="478.97" width="16.516" height="33.03" fill="#EBC9A0"/>
	<path d="m443.55 482.26c-1.821 16.855-15.95 29.741-32.903 29.741l-20.571 1e-3c-4.561 0-8.258-3.698-8.258-8.258v-8.258c0-9.122 7.394-16.516 16.516-16.516h8.258c1.339-11.92 1.94-22.875 1.991-33.032h37.353c-0.259 11.478-1.006 23.547-2.386 36.322z" fill="#F5DCB4"/>
</svg>
