<?xml version="1.0" encoding="utf-8"?>
<!-- Generator: Adobe Illustrator 23.0.3, SVG Export Plug-In . SVG Version: 6.00 Build 0)  -->
<svg version="1.1" baseProfile="tiny" id="Calque_1"
	 xmlns="http://www.w3.org/2000/svg" xmlns:xlink="http://www.w3.org/1999/xlink" x="0px" y="0px" viewBox="0 0 29 31.41"
	 xml:space="preserve">
<path fill="#FFFFFF" d="M1.05,1.51l5.89-1.47c0.64-0.16,1.3,0.2,1.56,0.85l2.72,6.87c0.24,0.6,0.08,1.31-0.39,1.72L7.4,12.52
	c2.04,4.7,5.6,8.62,10.04,10.87l2.81-3.72c0.39-0.51,1.03-0.68,1.59-0.42l6.34,2.94c0.61,0.29,0.94,1,0.79,1.69l-1.36,6.38
	c-0.14,0.66-0.69,1.14-1.33,1.14C11.78,31.41,0,18.68,0,2.95C0,2.26,0.44,1.66,1.05,1.51z"/>
</svg>
