<?xml version="1.0" encoding="utf-8"?>
<!-- Generator: Adobe Illustrator 23.0.3, SVG Export Plug-In . SVG Version: 6.00 Build 0)  -->
<svg version="1.1" baseProfile="tiny" id="Calque_1"
	 xmlns="http://www.w3.org/2000/svg" xmlns:xlink="http://www.w3.org/1999/xlink" x="0px" y="0px" viewBox="0 0 1025.39 722.61"
	 xml:space="preserve">
<g>
	<g>
		<path fill="transparent" d="M0.39,722.61c0-240.67,0-481.33,0-722c341.67,0,683.33,0,1025,0c0,240.67,0,481.33,0,722
			C683.72,722.61,342.06,722.61,0.39,722.61z M520.01,720.54c32.19-0.47,70.83-0.97,109.47-1.6c24.81-0.41,49.63-0.66,74.43-1.58
			c47.09-1.73,94.18-3.55,141.23-6.03c19.41-1.02,39.02-2.36,58.03-6.11c39.47-7.8,70.19-28.86,88.79-65.4
			c10.1-19.85,17.24-41.04,20.07-63c4.47-34.64,7.71-69.48,10.15-104.32c4.19-59.89,2.71-119.92,1.76-179.87
			c-0.59-37.24-4.29-74.44-6.93-111.64c-1.84-26-7.34-51.27-15.48-76.09c-12.47-38-36.33-65.3-73.29-80.91
			c-19.8-8.36-40.84-10.79-61.95-12.04c-39.22-2.33-78.46-4.39-117.71-5.87c-39.1-1.48-78.22-2.32-117.34-3.04
			c-34.81-0.64-69.63-1.08-104.44-0.98c-48.14,0.14-96.27,0.79-144.41,1.39c-22.15,0.28-44.3,0.65-66.43,1.5
			c-45.74,1.75-91.49,3.52-137.2,5.98c-18.58,1-37.35,2.39-55.51,6.12c-37.32,7.67-66.97,27.47-85.46,61.55
			c-13.23,24.38-20.69,50.95-24.11,78.31c-3.61,28.89-5.94,57.97-7.86,87.03c-4.15,62.73-3,125.58-1.88,188.36
			c0.64,35.91,4.22,71.78,6.73,107.64c1.93,27.53,7.74,54.24,16.71,80.39c14.5,42.25,43.15,69.46,86.11,80.59
			c18.28,4.74,37.24,7.62,56.07,9.24c30.67,2.64,61.48,3.91,92.25,5.09c36.6,1.4,73.23,2.31,109.85,3.04
			C418.96,719.2,466.26,719.74,520.01,720.54z"/>
		<path fill="red" d="M520.01,720.54c-53.75-0.8-101.05-1.34-148.34-2.27c-36.62-0.72-73.25-1.64-109.85-3.04
			c-30.77-1.18-61.58-2.45-92.25-5.09c-18.83-1.62-37.8-4.5-56.07-9.24c-42.96-11.13-71.61-38.34-86.11-80.59
			c-8.98-26.15-14.79-52.86-16.71-80.39c-2.51-35.87-6.09-71.73-6.73-107.64C2.81,369.5,1.66,306.66,5.81,243.93
			c1.92-29.06,4.25-58.14,7.86-87.03c3.41-27.36,10.88-53.92,24.11-78.31c18.49-34.08,48.14-53.88,85.46-61.55
			c18.16-3.73,36.94-5.12,55.51-6.12c45.71-2.46,91.46-4.22,137.2-5.98c22.13-0.85,44.28-1.22,66.43-1.5
			c48.13-0.6,96.27-1.25,144.41-1.39c34.81-0.1,69.63,0.34,104.44,0.98c39.12,0.72,78.25,1.57,117.34,3.04
			c39.26,1.48,78.49,3.55,117.71,5.87c21.12,1.25,42.16,3.68,61.95,12.04c36.96,15.61,60.81,42.9,73.29,80.91
			c8.15,24.82,13.64,50.09,15.48,76.09c2.64,37.2,6.34,74.4,6.93,111.64c0.96,59.94,2.44,119.98-1.76,179.87
			c-2.44,34.85-5.69,69.69-10.15,104.32c-2.83,21.96-9.97,43.15-20.07,63c-18.61,36.54-49.32,57.6-88.79,65.4
			c-19.01,3.76-38.62,5.09-58.03,6.11c-47.05,2.47-94.14,4.3-141.23,6.03c-24.79,0.91-49.62,1.17-74.43,1.58
			C590.84,719.57,552.2,720.07,520.01,720.54z M408.65,493.51c91.98-47.68,183.36-95.04,275.64-142.88
			c-92.47-48.25-183.79-95.9-275.64-143.82C408.65,302.81,408.65,397.7,408.65,493.51z"/>
		<path fill="white" d="M408.65,493.51c0-95.81,0-190.69,0-286.69c91.84,47.92,183.17,95.57,275.64,143.82
			C592.01,398.46,500.64,445.83,408.65,493.51z"/>
	</g>
</g>
</svg>
