<svg width="76" height="54" viewBox="0 0 76 54" fill="none" xmlns="http://www.w3.org/2000/svg">
<path d="M0.65711 10.7167C1.00254 5.39876 5.27811 1.23108 10.6007 0.967386C18.3083 0.585535 29.3246 0.125 37.625 0.125C45.9254 0.125 56.9417 0.585535 64.6492 0.967386C69.9719 1.23108 74.2475 5.39877 74.5929 10.7167C74.9238 15.8117 75.25 22.081 75.25 27C75.25 31.919 74.9238 38.1883 74.5929 43.2833C74.2475 48.6012 69.9719 52.7689 64.6492 53.0326C56.9417 53.4145 45.9254 53.875 37.625 53.875C29.3246 53.875 18.3083 53.4145 10.6008 53.0326C5.27811 52.7689 1.00254 48.6012 0.65711 43.2833C0.326166 38.1883 0 31.919 0 27C0 22.081 0.326166 15.8117 0.65711 10.7167Z" fill="#FC0D1B"/>
</svg>
