<svg id="Calque_1" data-name="Calque 1" xmlns="http://www.w3.org/2000/svg" viewBox="0 0 1933 137"><defs><style>.cls-1{fill:#22789d;}.cls-2{fill:#2c316f;}</style></defs><path class="cls-1" d="M0,126c60.81,5.67,256,9.4,384,1.83s256-22.76,384-18.14c128,4.45,256,28.83,384,27.21s256-28.71,384-34.75,256,9.16,320,16.61l77,7.24V7H0V81"/><path class="cls-2" d="M0,119c60.81,5.67,256,9.4,384,1.83s256-22.76,384-18.14c128,4.45,256,28.83,384,27.21s256-28.71,384-34.75,256,9.16,320,16.61l77,7.24V0H0V74"/></svg>