<svg id="Calque_1" data-name="Calque 1" xmlns="http://www.w3.org/2000/svg" viewBox="0 0 1920 137"><defs><style>.cls-1{fill:#22789d;}.cls-2{fill:#2b326f;}</style></defs><path class="cls-1" d="M0,123.27s155.62-10.48,301,1.82c171.77,14.52,291,13.3,397.5,7.65,96.82-5.14,210.85-23.19,364.84-11.29,187.86,14.53,226.09,22.13,370.27,8.17,140.67-13.61,213.07-.12,318.21-.92,101.29-.76,168.15-5.43,168.15-5.43V8.5H0Z"/><path class="cls-2" d="M0,114.77s155.62-10.48,301,1.81c171.77,14.52,291,13.3,397.5,7.65,96.82-5.14,210.85-23.18,364.84-11.28,187.86,14.52,226.09,22.12,370.27,8.17,140.67-13.61,213.07-.13,318.21-.92,101.29-.77,168.15-5.43,168.15-5.43V0H0Z"/></svg>