<svg xmlns="http://www.w3.org/2000/svg" width="500" height="500" viewBox="0 0 500 500">
  <defs>
    <style>
      .cls-1 {
        fill-rule: evenodd;
      }
    </style>
  </defs>
  <path id="Forme_1" data-name="Forme 1" class="cls-1" d="M30,186.541L249.028,429,469,185.5l-2.832-10.451L459.559,174l-15.105,12.541L249.972,401.828,55.49,186.541,45.105,176.09l-7.553,1.045-5.664,2.09Z"/>
  <path class="cls-1" d="M28.163,170.342c3.786-3.168,11.26-.52,16.694,5.916s6.771,14.222,2.985,17.391-11.26.52-16.694-5.916S24.377,173.511,28.163,170.342Z"/>
  <path class="cls-1" d="M470.636,171.609c3.193,3.516.575,11.688-5.847,18.253s-14.217,9.038-17.41,5.523-0.575-11.687,5.847-18.253S467.443,168.094,470.636,171.609Z"/>
</svg>
