<svg width="18" height="27" viewBox="0 0 18 27" fill="none" xmlns="http://www.w3.org/2000/svg">
<path d="M17.6182 19.0179C14.1202 14.6544 14.3741 14.9513 14.214 14.8209L12.5981 8.27728L17.2351 2.00773C17.6075 1.50413 17.4995 0.795172 16.9939 0.42426C16.4883 0.0533486 15.7765 0.160808 15.4039 0.664457L10.717 7.00164C10.6504 7.0149 7.85791 7.691 7.6939 7.75425L1.94829 1.92909C1.50829 1.4829 0.788256 1.4765 0.340251 1.91482C-0.107754 2.35314 -0.114184 3.07019 0.325925 3.51637L6.85423 10.1351L7.71087 13.6042L8.65996 17.4476L8.1335 19.3037L3.53934 18.4938C2.79788 18.3634 2.08918 18.8561 1.95787 19.5952C1.82651 20.3343 2.32161 21.0394 3.0637 21.1703C9.33143 22.2751 8.94039 22.2153 9.11219 22.2153C9.7126 22.2153 10.2559 21.8192 10.4242 21.2255C11.7267 16.6332 11.6455 16.951 11.6647 16.7779L12.2265 16.6403C12.2834 16.7231 12.0497 16.428 14.7794 19.8331L11.3503 23.7996C10.8586 24.3684 10.923 25.2264 11.494 25.7161C12.0649 26.2056 12.9265 26.1421 13.4184 25.573L17.5858 20.7525C18.0141 20.2573 18.0276 19.5286 17.6182 19.0179Z" fill="white"/>
</svg>
