<svg width="1933" height="137" viewBox="0 0 1933 137" fill="none" xmlns="http://www.w3.org/2000/svg">
<rect width="1920" height="98" fill="#2C316F"/>
<path d="M0 135.534H64.4333C128.867 135.534 257.733 135.534 386.6 128.506C515.467 121.584 644.333 107.372 773.2 111.662C902.067 115.794 1030.93 138.429 1159.8 136.929C1288.67 135.534 1417.53 110.267 1546.4 104.661C1675.27 98.9494 1804.13 113.162 1868.57 120.084L1933 127.111V85H1868.57C1804.13 85 1675.27 85 1546.4 85C1417.53 85 1288.67 85 1159.8 85C1030.93 85 902.067 85 773.2 85C644.333 85 515.467 85 386.6 85C257.733 85 128.867 85 64.4333 85H0V135.534Z" fill="#22789C"/>
<path d="M0 128.421H64C128 128.421 256 128.421 384 120.853C512 113.399 640 98.0926 768 102.713C896 107.163 1024 131.539 1152 129.923C1280 128.421 1408 101.21 1536 95.1732C1664 89.0225 1792 104.328 1856 111.783L1920 119.351V74H1856C1792 74 1664 74 1536 74C1408 74 1280 74 1152 74C1024 74 896 74 768 74C640 74 512 74 384 74C256 74 128 74 64 74H0V128.421Z" fill="#2C316F"/>
</svg>
