<?xml version="1.0" encoding="utf-8"?>
<!DOCTYPE svg PUBLIC "-//W3C//DTD SVG 20010904//EN" "http://www.w3.org/TR/2001/REC-SVG-20010904/DTD/svg10.dtd">
<svg version="1.0" xmlns="http://www.w3.org/2000/svg" width="20px" height="20px" viewBox="0 0 20 20" preserveAspectRatio="xMidYMid meet">
 <g fill="#d68fd6">
  <path d="M9 15 l0 -4 -4 0 c-2.2 0 -4 -0.4 -4 -1 0 -0.5 1.8 -1 4 -1 l4 0 0 -4 c0 -2.2 0.5 -4 1 -4 0.6 0 1 1.8 1 4 l0 4 4 0 c2.2 0 4 0.5 4 1 0 0.6 -1.8 1 -4 1 l-4 0 0 4 c0 2.2 -0.4 4 -1 4 -0.5 0 -1 -1.8 -1 -4z"/>
 </g>
</svg>