<svg width="51" height="50" viewBox="0 0 51 50" fill="none" xmlns="http://www.w3.org/2000/svg">
<path d="M49.5205 10.8787H38.3877V1.56904C38.3877 0.70251 37.7318 0 36.9229 0H2.4502C1.64121 0 0.985352 0.70251 0.985352 1.56904V42.1548C0.985352 46.4806 4.271 50 8.30957 50H43.6611C47.6997 50 50.9854 46.4806 50.9854 42.1548V12.4477C50.9854 11.5812 50.3295 10.8787 49.5205 10.8787ZM8.30957 46.8619C5.88643 46.8619 3.91504 44.7503 3.91504 42.1548V3.13808H35.458C35.458 44.6094 35.4395 42.3038 35.4916 42.8951C35.6189 44.3497 36.1254 45.7213 36.9263 46.8619H8.30957ZM48.0557 42.1548C48.0557 44.7503 46.0843 46.8619 43.6611 46.8619C43.3324 46.8619 43.105 46.8619 42.7822 46.8619C40.3591 46.8619 38.3877 44.7503 38.3877 42.1548V14.0167H48.0557V42.1548Z" fill="#D4DCFF"/>
<path d="M30.6729 7.53137H8.79785C7.98887 7.53137 7.33301 8.23388 7.33301 9.10041C7.33301 9.96694 7.98887 10.6694 8.79785 10.6694H30.6729C31.4818 10.6694 32.1377 9.96694 32.1377 9.10041C32.1377 8.23388 31.4818 7.53137 30.6729 7.53137Z" fill="#D4DCFF"/>
<path d="M30.6729 14.226H8.79785C7.98887 14.226 7.33301 14.9285 7.33301 15.795C7.33301 16.6615 7.98887 17.364 8.79785 17.364H30.6729C31.4818 17.364 32.1377 16.6615 32.1377 15.795C32.1377 14.9285 31.4818 14.226 30.6729 14.226Z" fill="#D4DCFF"/>
<path d="M30.6729 39.3306H8.79785C7.98887 39.3306 7.33301 40.0331 7.33301 40.8996C7.33301 41.7661 7.98887 42.4686 8.79785 42.4686H30.6729C31.4818 42.4686 32.1377 41.7661 32.1377 40.8996C32.1377 40.0331 31.4818 39.3306 30.6729 39.3306Z" fill="#D4DCFF"/>
<path d="M30.6729 20.9205H19.7354C18.9264 20.9205 18.2705 21.623 18.2705 22.4896V34.2051C18.2705 35.0716 18.9264 35.7741 19.7354 35.7741H30.6729C31.4818 35.7741 32.1377 35.0716 32.1377 34.2051V22.4896C32.1377 21.623 31.4818 20.9205 30.6729 20.9205ZM29.208 32.636H21.2002V24.0586H29.208V32.636Z" fill="#D4DCFF"/>
<path d="M8.79785 26.569H13.4854C14.2943 26.569 14.9502 25.8665 14.9502 24.9999C14.9502 24.1334 14.2943 23.4309 13.4854 23.4309H8.79785C7.98887 23.4309 7.33301 24.1334 7.33301 24.9999C7.33301 25.8665 7.98887 26.569 8.79785 26.569Z" fill="#D4DCFF"/>
<path d="M8.79785 33.2636H13.4854C14.2943 33.2636 14.9502 32.5611 14.9502 31.6945C14.9502 30.828 14.2943 30.1255 13.4854 30.1255H8.79785C7.98887 30.1255 7.33301 30.828 7.33301 31.6945C7.33301 32.5611 7.98887 33.2636 8.79785 33.2636Z" fill="#D4DCFF"/>
</svg>
