<?xml version="1.0" encoding="utf-8"?><svg xmlns="http://www.w3.org/2000/svg" xmlns:xlink="http://www.w3.org/1999/xlink"><symbol viewBox="0 0 512 279.27" id="chevron-down" xmlns="http://www.w3.org/2000/svg"><path fill="#0089FF" d="M505.18 6.82c-9.09-9.09-23.82-9.09-32.91 0L256 223.09 39.73 6.82c-9.09-9.09-23.82-9.09-32.91 0-9.09 9.09-9.09 23.82 0 32.91l232.73 232.73c4.36 4.36 10.28 6.82 16.46 6.82s12.09-2.45 16.45-6.82L505.18 39.73c9.09-9.09 9.09-23.83 0-32.91z"/></symbol><symbol viewBox="0 0 279.27 512" id="chevron-left" xmlns="http://www.w3.org/2000/svg"><path fill="#0089FF" d="M56.19 256L272.46 39.73c9.09-9.09 9.09-23.82 0-32.91s-23.82-9.09-32.91 0L6.82 239.55A23.235 23.235 0 000 256c0 6.17 2.45 12.09 6.82 16.46l232.73 232.72c4.54 4.54 10.5 6.82 16.45 6.82s11.91-2.27 16.46-6.82c9.09-9.09 9.09-23.82 0-32.91L56.19 256z"/></symbol><symbol viewBox="0 0 279.27 512" id="chevron-right" xmlns="http://www.w3.org/2000/svg"><path fill="#0089FF" d="M272.45 239.54L39.73 6.82c-9.09-9.09-23.82-9.09-32.91 0-9.09 9.09-9.09 23.82 0 32.91L223.09 256 6.81 472.27c-9.09 9.09-9.09 23.82 0 32.91 4.54 4.54 10.5 6.82 16.46 6.82 5.96 0 11.91-2.27 16.46-6.82l232.73-232.73a23.235 23.235 0 006.82-16.45c-.01-6.18-2.46-12.1-6.83-16.46z"/></symbol><symbol viewBox="0 0 353.53 512" id="happy" xmlns="http://www.w3.org/2000/svg"><g fill="#E7F8FF"><circle cx="168.7" cy="82.94" r="46.5"/><path d="M347.65 372.77c-69.02-86.45-64.01-80.57-67.17-83.15L248.6 159.97l91.5-124.22c7.35-9.98 5.22-24.02-4.76-31.37-9.98-7.35-24.02-5.22-31.37 4.76L211.48 134.7c-1.31.26-56.42 13.66-59.65 14.91L38.44 34.19c-8.68-8.84-22.89-8.97-31.73-.28s-8.96 22.89-.28 31.73l128.82 131.14 16.9 68.73 18.73 76.15-10.39 36.77-90.65-16.05c-14.63-2.59-28.62 7.18-31.21 21.82s7.18 28.61 21.82 31.21c123.68 21.89 115.96 20.71 119.35 20.71 11.85 0 22.57-7.85 25.89-19.61 25.7-90.99 24.1-84.69 24.48-88.12l11.09-2.73c1.12 1.64-3.49-4.21 50.38 63.26l-67.66 78.59c-9.7 11.27-8.43 28.27 2.84 37.97 11.26 9.7 28.27 8.44 37.97-2.84l82.23-95.51c8.44-9.81 8.71-24.24.63-34.36z"/></g></symbol><symbol viewBox="0 0 31 25.52" id="house" xmlns="http://www.w3.org/2000/svg"><path fill="#FFF" d="M15.09 6.62l-9.92 8.65v9.34c0 .24.09.47.25.64.16.17.38.27.61.27l6.03-.02c.23 0 .45-.1.61-.27.16-.17.25-.4.25-.64v-5.45c0-.24.09-.47.25-.64s.38-.27.61-.27h3.44c.23 0 .45.1.61.27.16.17.25.4.25.64v5.45c0 .12.02.24.06.35.04.11.11.21.19.3.08.08.18.15.28.2.1.05.22.07.33.07l6.03.02c.23 0 .45-.1.61-.27.16-.17.25-.4.25-.64v-9.34l-9.92-8.64c-.12-.1-.26-.15-.41-.15s-.29.03-.41.13zm15.67 5.88l-4.5-3.93V.68c0-.18-.07-.36-.19-.48s-.28-.2-.45-.2H22.6c-.17 0-.34.07-.46.2s-.19.3-.19.48v4.14L17.13.62C16.68.22 16.1 0 15.5 0s-1.18.22-1.64.62L.23 12.5c-.07.06-.12.13-.16.21-.03.08-.06.16-.07.25-.01.09 0 .18.03.27.02.09.07.17.12.23l1.37 1.77c.05.07.12.13.2.17.07.04.16.07.24.08a.611.611 0 00.47-.16L15.09 4.28c.12-.1.26-.15.41-.15s.3.05.41.15l12.66 11.04c.07.06.14.1.22.13.08.03.17.04.25.03.08-.01.17-.03.24-.08.07-.04.14-.1.2-.17l1.37-1.77c.05-.07.09-.15.12-.24a.822.822 0 00-.05-.53.898.898 0 00-.16-.19z"/></symbol><symbol viewBox="0 0 595.28 453.55" id="logo-aru1" xmlns="http://www.w3.org/2000/svg"><path fill="none" d="M161.8 339.54l-4 10.38h8.03zM270.92 199.12h19.01l-9.55-24.54zM330.03 171.05h-13.15v20.69h13.39c5.61 0 9.62-4.57 9.62-10.35 0-5.93-4.09-10.34-9.86-10.34zM325.29 351.48h-4.78c-2.2 0-3.73.92-3.73 2.88 0 1.76 1.22 2.88 3.86 2.88 2.37 0 4.65-1.46 4.65-4.34v-1.42zM253.02 344.87c-2.95 0-4.58 1.9-4.78 4.92h9.12c0-2.45-.85-4.92-4.34-4.92zM237.56 344.87c-2.95 0-4.58 1.9-4.78 4.92h9.12c0-2.45-.85-4.92-4.34-4.92zM275.56 338.05H270v8.75h5.66c2.37 0 4.07-1.93 4.07-4.37 0-2.51-1.73-4.38-4.17-4.38zM286.54 351.04c0 4.34 1.8 6.21 4.92 6.21s4.92-1.86 4.92-6.21c0-4.27-1.8-6.17-4.92-6.17s-4.92 1.9-4.92 6.17zM205.46 344.87c-2.95 0-4.58 1.9-4.78 4.92h9.12c0-2.45-.85-4.92-4.34-4.92zM405.63 344.87c-2.95 0-4.58 1.9-4.78 4.92h9.12c0-2.45-.85-4.92-4.34-4.92z"/><path fill="#E0007A" d="M413.66 237.05c-18.84 17.77-41.84 25.44-67.12 26.71-31.5 1.59-60.47-6.9-87.19-23.5-1.34-.83-5.5-3.19-6.28-3.26.7 1.7 1.23 3.01 1.77 4.32 14.77 35.77 48.44 56.91 88.64 55.64 40.71-1.29 69.33-34.67 79.83-61.37 1.79-4.56 3.28-12.11 3.25-12.74-.18.16-6.84 7.68-7.23 8.15a70.356 70.356 0 01-5.67 6.05z"/><path fill="#85177E" d="M277.98 292.49c-32.77-18.28-51.7-46.91-61.15-82.55-.22-.84-1.87-6.74-2.12-7.06-14.8 28.45-9.58 71.33 22.78 96.66 31.09 24.34 72.96 19.89 94.87 1.73-24.02 2.62-37.52.63-54.38-8.78z"/><path fill="#00408F" d="M191.2 223.8c.18-25.25 8.83-47.92 23.9-68.65-23.57 5.66-52.82 32.1-49.16 73.1 3.07 34.3 30.64 57.05 54.83 60.77-22.05-17.13-29.75-39.64-29.57-65.22z"/><path fill="#008CCF" d="M170.75 136.03c-21.04 22.3-18.56 54.89-9.14 67.4-1.62-37.37 35.73-72.76 84.33-76.29-21.79-15.83-56.02-11.44-75.19 8.89z"/><path fill="#00958B" d="M231.84 85.94c-19.32 1.91-39.83 17.35-40.98 30.15 34.31-23.77 64.6-12.27 93.5 11.26-3.44-22.51-20.93-38.85-44.42-41.4h-8.1z"/><path fill="#4EA729" d="M268.19 88.52c27.09 6.64 41.39 31.2 38.13 64.81 11.56-8.37 15.16-29.36 7.66-44.61-8.25-16.79-27.45-25.45-45.79-20.2z"/><path fill="#0D3082" d="M280.38 165.43c-1.44 0-2.16.88-2.57 1.85l-19.57 49.48c-.16.32-.24.88-.24 1.2 0 1.44 1.2 2.73 2.73 2.73 1.36 0 2.25-.88 2.65-1.92l5.86-14.68h22.38l5.77 14.76c.4 1.04 1.28 1.84 2.65 1.84 1.68 0 2.81-1.28 2.81-2.73 0-.24-.08-.8-.24-1.2l-19.57-49.48c-.41-.96-1.29-1.85-2.66-1.85zm-9.46 33.69l9.46-24.54 9.54 24.54h-19zM345.43 181.39c0-8.58-6.42-15.32-15.32-15.32h-15.96c-1.52 0-2.73 1.2-2.73 2.73v49.16c0 1.52 1.2 2.73 2.73 2.73s2.73-1.2 2.73-2.73v-21.25h8.1l16.28 22.7c.64.96 1.52 1.28 2.33 1.28 1.52 0 2.73-1.2 2.73-2.73 0-.56-.16-1.2-.56-1.68l-14.68-19.57c8.65-.4 14.35-7.06 14.35-15.32zm-15.16 10.35h-13.39v-20.69h13.15c5.77 0 9.86 4.41 9.86 10.35 0 5.77-4.01 10.34-9.62 10.34z"/><path fill="#37A8DB" d="M358.26 165.43c-2.57 0-4.65 2.08-4.65 4.65v32.32c0 9.14 4.01 18.77 20.21 18.77s20.21-9.62 20.21-18.77v-32.32c0-2.57-2.09-4.65-4.65-4.65-2.57 0-4.65 2.08-4.65 4.65v32.32c0 4.89-1.84 10.59-10.91 10.59-9.06 0-10.91-5.69-10.91-10.59v-32.32c0-2.56-2.08-4.65-4.65-4.65zM416.65 220.69c2.49 0 4.57-2.09 4.57-4.57v-46.11c0-2.49-2.09-4.57-4.57-4.57-1.2 0-1.93.4-2.81.96l-11.55 7.46c-1.12.72-1.92 2.09-1.92 3.69 0 2.41 2.01 4.41 4.41 4.41 1.04 0 1.92-.32 2.65-.88l4.65-3.13v38.17c0 2.49 2.08 4.57 4.57 4.57z"/><path fill="#0D3082" d="M152.34 357.89c0 .61.51 1.15 1.15 1.15.58 0 .95-.37 1.12-.81l2.48-6.21h9.46l2.44 6.24c.17.44.54.78 1.12.78.71 0 1.19-.54 1.19-1.15 0-.1-.03-.34-.1-.51l-8.27-20.92c-.17-.41-.54-.78-1.12-.78-.61 0-.92.37-1.09.78l-8.27 20.92c-.08.13-.11.37-.11.51zm9.46-18.35l4.03 10.38h-8.04l4.01-10.38zM178.95 345.41c.58 0 1.02-.44 1.02-1.02s-.44-1.02-1.02-1.02h-2.2v-3.56c0-.58-.48-1.08-1.09-1.08-.58 0-1.09.51-1.09 1.08v3.56h-1.32c-.58 0-1.02.44-1.02 1.02s.44 1.02 1.02 1.02h1.32v9.36c0 2.48 1.46 4.27 4.14 4.27.58 0 1.05-.44 1.05-1.02s-.47-1.02-1.05-1.02c-1.15 0-1.97-.78-1.97-2.24v-9.36h2.21zM194.68 359.04c.61 0 1.09-.47 1.09-1.08v-9.05c0-2.88-1.02-6-6.24-6-2.2 0-3.87 1.09-4.51 2.37v-9.56c0-.61-.48-1.09-1.09-1.09s-1.09.47-1.09 1.09v22.24c0 .61.48 1.08 1.09 1.08s1.09-.47 1.09-1.08v-8.38c0-2.71 1.15-4.75 4.51-4.75 3.29 0 4.07 1.83 4.07 4.51v8.61c-.01.62.47 1.09 1.08 1.09zM204.78 341.07l3.29-3.32c.37-.37.41-.81-.1-1.29-.54-.47-1.02-.34-1.29 0l-3.02 3.66c-.24.3-.3.68.1 1.02.41.34.71.24 1.02-.07zM211.93 349.51c0-2.31-1.05-6.61-6.48-6.61-4.41 0-6.98 2.91-6.98 8.14 0 5.7 2.81 8.17 7.32 8.17 3.02 0 4.78-1.39 5.29-1.9.2-.2.37-.41.37-.78 0-.54-.44-.98-.98-.98-.27 0-.41.07-.61.2-.95.71-2.1 1.46-4.07 1.46-3.19 0-5.12-2.17-5.12-5.53h9.9c1.36 0 1.36-1.18 1.36-2.17zm-11.25.27c.2-3.02 1.83-4.92 4.78-4.92 3.49 0 4.34 2.48 4.34 4.92h-9.12zM226.78 359.04c.61 0 1.09-.47 1.09-1.08v-9.05c0-2.88-1.02-6-6.24-6-2.2 0-3.87 1.09-4.51 2.37v-1.09c0-.61-.48-1.08-1.09-1.08s-1.09.47-1.09 1.08v13.77c0 .61.48 1.08 1.09 1.08s1.09-.47 1.09-1.08v-8.38c0-2.71 1.15-4.75 4.51-4.75 3.29 0 4.07 1.83 4.07 4.51v8.61c0 .62.47 1.09 1.08 1.09zM244.04 349.51c0-2.31-1.05-6.61-6.48-6.61-4.41 0-6.98 2.91-6.98 8.14 0 5.7 2.81 8.17 7.32 8.17 3.02 0 4.78-1.39 5.29-1.9.2-.2.37-.41.37-.78 0-.54-.44-.98-.98-.98-.27 0-.41.07-.61.2-.95.71-2.1 1.46-4.07 1.46-3.19 0-5.12-2.17-5.12-5.53h9.9c1.36 0 1.36-1.18 1.36-2.17zm-11.26.27c.2-3.02 1.83-4.92 4.78-4.92 3.49 0 4.34 2.48 4.34 4.92h-9.12zM236.88 341.07l3.29-3.32c.37-.37.41-.81-.1-1.29-.54-.47-1.02-.34-1.29 0l-3.02 3.66c-.24.3-.3.68.1 1.02.41.34.72.24 1.02-.07zM259.49 349.51c0-2.31-1.05-6.61-6.48-6.61-4.41 0-6.98 2.92-6.98 8.14 0 5.7 2.81 8.17 7.32 8.17 3.02 0 4.78-1.39 5.29-1.9.2-.2.37-.41.37-.78 0-.54-.44-.98-.98-.98-.27 0-.41.07-.61.2-.95.71-2.1 1.46-4.07 1.46-3.19 0-5.12-2.17-5.12-5.53h9.9c1.36 0 1.36-1.18 1.36-2.17zm-11.25.27c.2-3.02 1.83-4.92 4.78-4.92 3.49 0 4.34 2.48 4.34 4.92h-9.12zM282.07 342.43c0-3.63-2.71-6.48-6.48-6.48h-6.75c-.64 0-1.15.51-1.15 1.15v20.78c0 .64.51 1.15 1.15 1.15.64 0 1.15-.51 1.15-1.15v-8.98h3.42l6.88 9.59c.27.41.64.54.98.54.65 0 1.15-.51 1.15-1.15 0-.24-.07-.51-.24-.71L276 348.9c3.66-.17 6.07-2.98 6.07-6.47zm-6.41 4.37H270v-8.75h5.56c2.44 0 4.17 1.86 4.17 4.37 0 2.45-1.7 4.38-4.07 4.38zM284.34 351.04c0 5.56 2.75 8.17 7.12 8.17 4.41 0 7.12-2.61 7.12-8.17 0-5.56-2.71-8.14-7.12-8.14-4.38 0-7.12 2.58-7.12 8.14zm12.03 0c0 4.34-1.8 6.21-4.92 6.21s-4.92-1.86-4.92-6.21c0-4.27 1.8-6.17 4.92-6.17 3.13 0 4.92 1.9 4.92 6.17zM300.1 363.55a1 1 0 00-1.02 1.02 1 1 0 001.02 1.02c3.22 0 4.95-1.69 6.34-5.02l6.68-15.9c.03-.1.1-.24.1-.47 0-.61-.48-1.09-1.09-1.09s-.88.37-1.02.71l-4.78 11.7-4.78-11.7c-.14-.34-.41-.71-1.02-.71-.61 0-1.08.47-1.08 1.09 0 .24.07.37.1.47l5.66 13.46c-1.38 3.42-2.16 5.42-5.11 5.42zM326.34 359.04c.58 0 1.05-.47 1.05-1.05v-9.32c0-3.46-2.17-5.76-6.1-5.76-2.85 0-4.68 1.19-5.63 2.68-.1.17-.17.34-.17.58 0 .54.44.98.98.98.3 0 .54-.1.88-.47 1.05-1.19 2.14-1.73 3.93-1.73 2.47 0 4 1.42 4 3.73v.92h-4.78c-3.66 0-5.93 1.8-5.93 4.78 0 3.12 2.27 4.85 5.87 4.85 2.03 0 4-.85 4.85-2.44v1.22c0 .56.47 1.03 1.05 1.03zm-5.7-1.8c-2.64 0-3.86-1.12-3.86-2.88 0-1.97 1.53-2.88 3.73-2.88h4.78v1.43c0 2.88-2.27 4.33-4.65 4.33zM332.2 334.63c-.58 0-1.08.51-1.08 1.09v19.36c0 2.61 1.25 3.97 3.52 3.97.54 0 1.02-.44 1.02-1.02 0-.58-.47-1.02-1.02-1.02-.91 0-1.35-.58-1.35-1.93v-19.36c0-.58-.48-1.09-1.09-1.09z"/><path fill="#37A8DB" d="M344.54 335.68c-.64 0-1.15.51-1.15 1.15v14.99c0 3.73 1.56 7.42 7.97 7.42s7.93-3.7 7.93-7.42v-14.99c0-.64-.51-1.15-1.15-1.15-.64 0-1.15.51-1.15 1.15v14.99c0 2.68-.98 5.26-5.63 5.26-4.68 0-5.66-2.58-5.66-5.26v-14.99c-.01-.64-.52-1.15-1.16-1.15zM369.66 344.87c2.24 0 3.15 1.02 3.66 1.59.24.27.47.41.81.41.54 0 .98-.41.98-.98 0-.24-.07-.41-.24-.64-.54-.75-2.2-2.34-5.22-2.34-4.37 0-6.98 2.58-6.98 8.14 0 5.56 2.61 8.17 6.98 8.17 2.75 0 4.37-1.22 5.12-1.83.34-.31.44-.54.44-.85 0-.54-.44-.98-.98-.98-.24 0-.41.07-.64.24-.78.58-1.97 1.46-3.93 1.46-3.12 0-4.78-1.97-4.78-6.21 0-4.18 1.66-6.18 4.78-6.18zM384.27 344.87c2.24 0 3.15 1.02 3.66 1.59.24.27.47.41.81.41.54 0 .98-.41.98-.98 0-.24-.07-.41-.24-.64-.54-.75-2.2-2.34-5.22-2.34-4.37 0-6.98 2.58-6.98 8.14 0 5.56 2.61 8.17 6.98 8.17 2.75 0 4.37-1.22 5.12-1.83.34-.31.44-.54.44-.85 0-.54-.44-.98-.98-.98-.24 0-.41.07-.64.24-.78.58-1.97 1.46-3.93 1.46-3.12 0-4.78-1.97-4.78-6.21 0-4.18 1.66-6.18 4.78-6.18zM393.66 334.63c-.58 0-1.09.51-1.09 1.09v19.36c0 2.61 1.25 3.97 3.53 3.97.54 0 1.02-.44 1.02-1.02 0-.58-.48-1.02-1.02-1.02-.92 0-1.35-.58-1.35-1.93v-19.36c-.01-.58-.48-1.09-1.09-1.09zM412.1 349.51c0-2.31-1.05-6.61-6.48-6.61-4.41 0-6.98 2.92-6.98 8.14 0 5.7 2.81 8.17 7.32 8.17 3.02 0 4.78-1.39 5.29-1.9.2-.2.37-.41.37-.78 0-.54-.44-.98-.98-.98-.27 0-.41.07-.61.2-.95.71-2.1 1.46-4.07 1.46-3.19 0-5.12-2.17-5.12-5.53h9.9c1.36 0 1.36-1.18 1.36-2.17zm-11.25.27c.2-3.02 1.83-4.92 4.78-4.92 3.49 0 4.34 2.48 4.34 4.92h-9.12zM425.32 359.04c.61 0 1.12-.51 1.12-1.12V336.8c0-.61-.51-1.12-1.12-1.12-.24 0-.44.07-.68.24l-5.32 3.7c-.31.2-.47.58-.47.92 0 .58.51 1.08 1.08 1.08.24 0 .44-.07.64-.2l3.63-2.61v19.12c0 .6.51 1.11 1.12 1.11z"/></symbol><symbol id="logo-aru1-morgane" viewBox="0 0 274.4 279.65" xmlns="http://www.w3.org/2000/svg"><defs><clipPath id="gclip-path" transform="translate(-152.34 -85.94)"><path class="gcls-1" d="M0 0h595.28v453.55H0z"/></clipPath><style>.gcls-1{fill:none}.gcls-2{clip-path:url(#gclip-path)}.gcls-3{fill:#e0007a}.gcls-4{fill:#85177e}.gcls-5{fill:#00408f}.gcls-6{fill:#008ccf}.gcls-7{fill:#00958b}.gcls-8{fill:#4ea729}.gcls-9{fill:#0d3082}.gcls-10{fill:#37a8db}</style></defs><g class="gcls-2"><path class="gcls-3" d="M426.74 225c-2.08 3.44-2.38 7.47-3.66 11.18-11.94 34.63-44.64 59.66-79.6 60.77-40.19 1.28-73.87-19.86-88.64-55.64-.54-1.3-1.07-2.61-1.76-4.31 2.82.25 4.42 2.1 6.28 3.26 26.71 16.59 55.68 25.09 87.19 23.5 25.27-1.28 48.27-8.95 67.11-26.72a67.61 67.61 0 008.82-10.14c1.14-1.61 2.23-3.26 4.26-3.9z" transform="translate(-152.34 -85.94)"/><path class="gcls-4" d="M332.35 301.27c-21.9 18.17-63.77 22.61-94.86-1.72-32.36-25.33-37.58-68.22-22.78-96.66 1.71 2.15 1.51 4.76 2.12 7.06 9.45 35.63 28.38 64.26 61.15 82.54 16.86 9.41 30.36 11.4 54.37 8.78" transform="translate(-152.34 -85.94)"/><path class="gcls-5" d="M220.77 289c-24.2-3.72-51.77-26.46-54.84-60.77-3.66-41 25.6-67.44 49.16-73.1-15.09 20.75-23.71 43.42-23.89 68.67-.18 25.58 7.52 48.09 29.57 65.23" transform="translate(-152.34 -85.94)"/><path class="gcls-6" d="M245.94 127.13c-48.6 3.53-85.95 38.92-84.33 76.29-9.43-12.51-11.9-45.09 9.14-67.39 19.17-20.33 53.4-24.72 75.19-8.9" transform="translate(-152.34 -85.94)"/><path class="gcls-7" d="M231.84 85.94h8.09c23.49 2.55 41 18.89 44.42 41.4-28.89-23.52-59.18-35-93.5-11.25 1.16-12.8 21.66-28.24 41-30.15" transform="translate(-152.34 -85.94)"/><path class="gcls-8" d="M268.19 88.52a39 39 0 0145.81 20.2c7.51 15.25 3.91 36.24-7.65 44.61 3.26-33.62-11.05-58.17-38.14-64.81" transform="translate(-152.34 -85.94)"/><path class="gcls-9" d="M269.24 204.09l-5.86 14.68a2.79 2.79 0 01-2.65 1.92A2.75 2.75 0 01258 218a3.22 3.22 0 01.24-1.21l19.57-49.48a2.65 2.65 0 012.56-1.85 2.84 2.84 0 012.65 1.85l19.57 49.48a4 4 0 01.24 1.21 2.81 2.81 0 01-5.45.88l-5.78-14.76zm11.14-29.51l-9.46 24.54h19zM316.88 218a2.73 2.73 0 01-5.46 0v-49.2a2.71 2.71 0 012.73-2.72h16a15 15 0 0115.32 15.31c0 8.26-5.7 14.92-14.36 15.32l14.68 19.57a2.67 2.67 0 01.56 1.69 2.73 2.73 0 01-5.05 1.44l-16.3-22.7h-8.1zm0-26.23h13.39c5.61 0 9.62-4.57 9.62-10.35s-4.09-10.34-9.86-10.34h-13.15z" transform="translate(-152.34 -85.94)"/><path class="gcls-10" d="M353.61 202.41v-32.32a4.65 4.65 0 119.3 0v32.32c0 4.89 1.85 10.58 10.91 10.58s10.91-5.69 10.91-10.58v-32.32a4.65 4.65 0 119.3 0v32.32c0 9.14-4 18.76-20.21 18.76s-20.21-9.62-20.21-18.76M407.42 181.07a4.2 4.2 0 01-2.64.88 4.44 4.44 0 01-4.41-4.41 4.39 4.39 0 011.92-3.69l11.55-7.45a4.57 4.57 0 017.38 3.61v46.11a4.57 4.57 0 01-9.14 0V178z" transform="translate(-152.34 -85.94)"/><path class="gcls-9" d="M157.08 352l-2.47 6.21a1.18 1.18 0 01-1.12.81 1.16 1.16 0 01-1.15-1.15 1.29 1.29 0 01.1-.51l8.27-20.92a1.12 1.12 0 011.09-.78 1.2 1.2 0 011.12.78l8.27 20.92a1.62 1.62 0 01.1.51 1.19 1.19 0 01-2.3.37l-2.45-6.24zm4.72-12.48l-4 10.38h8zM174.58 339.82a1.11 1.11 0 011.08-1.09 1.1 1.1 0 011.09 1.09v3.56H179a1 1 0 110 2h-2.2v9.36c0 1.46.81 2.24 2 2.24a1 1 0 110 2c-2.68 0-4.13-1.8-4.13-4.27v-9.36h-1.33a1 1 0 010-2h1.33zM195.76 348.9v9.1a1.09 1.09 0 01-2.17 0v-8.62c0-2.68-.78-4.51-4.06-4.51s-4.51 2-4.51 4.75V358a1.09 1.09 0 01-2.17 0v-22.29a1.09 1.09 0 012.17 0v9.56a4.94 4.94 0 014.51-2.37c5.22 0 6.23 3.12 6.23 6M205.46 342.9c5.42 0 6.47 4.31 6.47 6.61 0 1 0 2.17-1.35 2.17h-9.9c0 3.36 1.93 5.53 5.12 5.53a6.28 6.28 0 004.07-1.46 1 1 0 01.61-.2 1 1 0 011 1 1 1 0 01-.37.78 7.57 7.57 0 01-5.29 1.9c-4.51 0-7.33-2.48-7.33-8.17 0-5.22 2.58-8.14 7-8.14m0 2c-3 0-4.58 1.9-4.78 4.91h9.12c0-2.44-.85-4.91-4.34-4.91m-1.8-4.75l3-3.66c.27-.34.74-.48 1.29 0a.81.81 0 01.1 1.29l-3.29 3.32a.65.65 0 01-1 .07.67.67 0 01-.1-1M227.87 348.9v9.1a1.09 1.09 0 01-2.17 0v-8.62c0-2.68-.78-4.51-4.07-4.51s-4.51 2-4.51 4.75V358a1.09 1.09 0 01-2.17 0v-13.81a1.09 1.09 0 112.17 0v1.08a4.94 4.94 0 014.51-2.37c5.22 0 6.24 3.12 6.24 6M237.56 342.9c5.42 0 6.48 4.31 6.48 6.61 0 1 0 2.17-1.36 2.17h-9.9c0 3.36 1.93 5.53 5.12 5.53a6.25 6.25 0 004.07-1.46 1 1 0 01.61-.2 1 1 0 011 1 1 1 0 01-.37.78 7.54 7.54 0 01-5.29 1.9c-4.51 0-7.32-2.48-7.32-8.17 0-5.22 2.57-8.14 7-8.14m0 2c-2.95 0-4.58 1.9-4.78 4.91h9.12c0-2.44-.85-4.91-4.34-4.91m-1.8-4.75l3-3.66a.82.82 0 011.29 0 .8.8 0 01.1 1.29l-3.29 3.32a.65.65 0 01-1 .07.68.68 0 01-.1-1M253 342.9c5.42 0 6.47 4.31 6.47 6.61 0 1 0 2.17-1.35 2.17h-9.9c0 3.36 1.93 5.53 5.12 5.53a6.25 6.25 0 004.06-1.46 1 1 0 011.22 1.56 7.51 7.51 0 01-5.28 1.9c-4.51 0-7.33-2.48-7.33-8.17 0-5.22 2.58-8.14 7-8.14m0 2c-3 0-4.58 1.9-4.78 4.91h9.12c0-2.44-.85-4.91-4.34-4.91M270 357.89a1.16 1.16 0 01-2.31 0V337.1a1.15 1.15 0 011.16-1.15h6.74a6.33 6.33 0 016.48 6.48 6.24 6.24 0 01-6.07 6.47l6.2 8.28a1.11 1.11 0 01.24.71 1.15 1.15 0 01-2.13.61l-6.89-9.6H270zm0-11.09h5.66a4.38 4.38 0 00-.1-8.75H270zM298.58 351c0 5.56-2.72 8.17-7.12 8.17s-7.12-2.61-7.12-8.17 2.74-8.14 7.12-8.14 7.12 2.58 7.12 8.14m-2.21 0c0-4.27-1.79-6.17-4.91-6.17s-4.92 1.9-4.92 6.17 1.8 6.2 4.92 6.2 4.91-1.86 4.91-6.2M305.22 358.12l-5.66-13.46a1.1 1.1 0 01-.1-.47 1.07 1.07 0 011.08-1.09 1 1 0 011 .72l4.78 11.69 4.78-11.69a1 1 0 011-.72 1.07 1.07 0 011.08 1.09 1.27 1.27 0 01-.1.47l-6.68 15.91c-1.39 3.32-3.12 5-6.34 5a1 1 0 110-2c2.95 0 3.73-2 5.12-5.43M317.35 346.66a1.07 1.07 0 01-.88.48 1 1 0 01-1-1 1.07 1.07 0 01.17-.58 6.31 6.31 0 015.63-2.68c3.93 0 6.1 2.31 6.1 5.77V358a1.05 1.05 0 01-2.1 0v-1.22a5.39 5.39 0 01-4.85 2.44c-3.59 0-5.87-1.73-5.87-4.85s2.28-4.78 5.94-4.78h4.78v-.91c0-2.31-1.53-3.73-4-3.73a4.73 4.73 0 00-3.94 1.72m7.94 6.24v-1.42h-4.78c-2.21 0-3.73.91-3.73 2.88 0 1.76 1.22 2.88 3.86 2.88 2.38 0 4.65-1.45 4.65-4.34M333.29 335.71v19.36c0 1.36.44 1.94 1.35 1.94a1 1 0 110 2c-2.27 0-3.52-1.36-3.52-4v-19.3a1.12 1.12 0 011.08-1.08 1.1 1.1 0 011.09 1.08" transform="translate(-152.34 -85.94)"/><path class="gcls-10" d="M343.39 351.82v-15a1.15 1.15 0 012.3 0v15c0 2.68 1 5.25 5.66 5.25s5.63-2.57 5.63-5.25v-15a1.16 1.16 0 012.31 0v15c0 3.73-1.53 7.42-7.94 7.42s-8-3.69-8-7.42M369.66 342.9a6.36 6.36 0 015.22 2.34 1 1 0 01.24.64 1 1 0 01-1 1 1 1 0 01-.82-.41 4.32 4.32 0 00-3.66-1.59c-3.12 0-4.78 2-4.78 6.17s1.66 6.2 4.78 6.2a6.2 6.2 0 003.93-1.45 1 1 0 01.65-.24 1 1 0 011 1 1.05 1.05 0 01-.44.85 7.74 7.74 0 01-5.12 1.83c-4.37 0-7-2.61-7-8.17s2.61-8.14 7-8.14M384.27 342.9a6.36 6.36 0 015.22 2.34 1 1 0 01.24.64 1 1 0 01-1 1 1 1 0 01-.82-.41 4.32 4.32 0 00-3.66-1.59c-3.12 0-4.78 2-4.78 6.17s1.66 6.2 4.78 6.2a6.2 6.2 0 003.93-1.45 1 1 0 01.65-.24 1 1 0 011 1 1.05 1.05 0 01-.44.85 7.74 7.74 0 01-5.12 1.83c-4.37 0-7-2.61-7-8.17s2.61-8.14 7-8.14M394.74 335.71v19.36c0 1.36.44 1.94 1.36 1.94a1 1 0 110 2c-2.27 0-3.53-1.36-3.53-4v-19.3a1.12 1.12 0 011.09-1.08 1.09 1.09 0 011.08 1.08M405.63 342.9c5.42 0 6.47 4.31 6.47 6.61 0 1 0 2.17-1.35 2.17h-9.9c0 3.36 1.93 5.53 5.11 5.53a6.25 6.25 0 004.07-1.46 1 1 0 011.6.78 1 1 0 01-.37.78 7.58 7.58 0 01-5.3 1.9c-4.5 0-7.32-2.48-7.32-8.17 0-5.22 2.58-8.14 7-8.14m0 2c-2.95 0-4.58 1.9-4.78 4.91H410c0-2.44-.85-4.91-4.34-4.91M420.57 341.41a1.06 1.06 0 01-.64.2 1.12 1.12 0 01-1.09-1.08 1.13 1.13 0 01.48-.92l5.32-3.69a1.11 1.11 0 01.68-.24 1.13 1.13 0 011.12 1.12v21.12a1.12 1.12 0 01-2.24 0V338.8z" transform="translate(-152.34 -85.94)"/></g></symbol><symbol viewBox="0 0 29 31.41" id="phone" xmlns="http://www.w3.org/2000/svg"><path fill="#FFF" d="M1.05 1.51L6.94.04c.64-.16 1.3.2 1.56.85l2.72 6.87c.24.6.08 1.31-.39 1.72L7.4 12.52c2.04 4.7 5.6 8.62 10.04 10.87l2.81-3.72c.39-.51 1.03-.68 1.59-.42l6.34 2.94c.61.29.94 1 .79 1.69l-1.36 6.38c-.14.66-.69 1.14-1.33 1.14C11.78 31.41 0 18.68 0 2.95c0-.69.44-1.29 1.05-1.44z"/></symbol><symbol viewBox="0 0 426.667 426.667" id="plus" xmlns="http://www.w3.org/2000/svg"><path d="M405.332 192H234.668V21.332C234.668 9.559 225.109 0 213.332 0 201.559 0 192 9.559 192 21.332V192H21.332C9.559 192 0 201.559 0 213.332c0 11.777 9.559 21.336 21.332 21.336H192v170.664c0 11.777 9.559 21.336 21.332 21.336 11.777 0 21.336-9.559 21.336-21.336V234.668h170.664c11.777 0 21.336-9.559 21.336-21.336 0-11.773-9.559-21.332-21.336-21.332zm0 0"/></symbol><symbol viewBox="0 0 50 50" id="scribe" xmlns="http://www.w3.org/2000/svg"><path fill="#D4DCFF" d="M48.54 10.88H37.4V1.57C37.4.7 36.75 0 35.94 0H1.46C.66 0 0 .7 0 1.57v40.59C0 46.48 3.29 50 7.32 50h35.35c4.04 0 7.32-3.52 7.32-7.85v-29.7c.01-.87-.65-1.57-1.45-1.57zM7.32 46.86c-2.42 0-4.39-2.11-4.39-4.71V3.14h31.54c0 41.47-.02 39.17.03 39.76.13 1.45.63 2.83 1.43 3.97H7.32zm39.75-4.71c0 2.6-1.97 4.71-4.39 4.71h-.88c-2.42 0-4.39-2.11-4.39-4.71V14.02h9.67v28.13z"/><path fill="#D4DCFF" d="M29.69 7.53H7.81c-.81 0-1.46.7-1.46 1.57 0 .87.66 1.57 1.46 1.57h21.88c.81 0 1.46-.7 1.46-1.57 0-.87-.65-1.57-1.46-1.57zM29.69 14.23H7.81c-.81 0-1.46.7-1.46 1.57 0 .87.66 1.57 1.46 1.57h21.88c.81 0 1.46-.7 1.46-1.57 0-.87-.65-1.57-1.46-1.57zM29.69 39.33H7.81c-.81 0-1.46.7-1.46 1.57s.65 1.57 1.46 1.57h21.88c.81 0 1.46-.7 1.46-1.57s-.65-1.57-1.46-1.57zM29.69 20.92H18.75c-.81 0-1.46.7-1.46 1.57v11.72c0 .87.66 1.57 1.46 1.57h10.94c.81 0 1.46-.7 1.46-1.57V22.49c0-.87-.65-1.57-1.46-1.57zm-1.47 11.72h-8.01v-8.58h8.01v8.58zM7.81 26.57h4.69c.81 0 1.46-.7 1.46-1.57 0-.87-.66-1.57-1.46-1.57H7.81c-.81 0-1.46.7-1.46 1.57 0 .87.65 1.57 1.46 1.57zM7.81 33.26h4.69c.81 0 1.46-.7 1.46-1.57 0-.87-.66-1.57-1.46-1.57H7.81c-.81 0-1.46.7-1.46 1.57 0 .87.65 1.57 1.46 1.57z"/></symbol></svg>