<svg width="59" height="61" viewBox="0 0 59 61" fill="none" xmlns="http://www.w3.org/2000/svg">
<path fill-rule="evenodd" clip-rule="evenodd" d="M58.2177 30.2362C58.2177 13.5385 45.3239 0 29.4213 0C13.5188 0 0.625 13.5385 0.625 30.2362C0.625 45.3266 11.1539 57.836 24.9224 60.1068V38.9784H17.6088V30.2362H24.9224V23.5732C24.9224 15.996 29.2229 11.8077 35.7994 11.8077C38.9498 11.8077 42.2463 12.3988 42.2463 12.3988V19.8399H38.6137C35.0381 19.8399 33.9203 22.17 33.9203 24.5639V30.2359H41.9059L40.6303 38.9782H33.9201V60.1066C47.6885 57.84 58.2175 45.3305 58.2175 30.2359L58.2177 30.2362Z" fill="#1977F3"/>
</svg>
